<?xml version="1.0" encoding="utf-8"?>
<!-- Generator: Adobe Illustrator 17.1.0, SVG Export Plug-In . SVG Version: 6.00 Build 0)  -->
<!DOCTYPE svg PUBLIC "-//W3C//DTD SVG 1.1//EN" "http://www.w3.org/Graphics/SVG/1.1/DTD/svg11.dtd">
<svg version="1.1" id="Calque_1" xmlns="http://www.w3.org/2000/svg" xmlns:xlink="http://www.w3.org/1999/xlink" x="0px" y="0px"
	 viewBox="0 0 96.167 70.333" enable-background="new 0 0 96.167 70.333" xml:space="preserve">
<g>
	<g class="goalkeeper">
		<polygon fill="#DDDDDD" points="20.724,6.667 11.227,6.667 12.228,2.667 19.723,2.667"/>
		<polygon fill="#F0F0F0" points="19.99,8.667 11.961,8.667 12.807,4.667 19.143,4.667"/>
		<polygon fill="#F7941D" points="22.024,4.667 30.19,6.859 28.886,13.171 24.209,12.686 25.284,30.667 6.478,30.667 7.553,12.702 2.876,13.142 1.572,6.828 9.738,4.667 "/>
		<polygon fill="#E8D84D" points="9.738,4.667 24.68,20.692 23.758,8.541 28.886,13.187 30.19,6.851 22.024,4.667 "/>
		<polygon fill="#E8D84D" points="7.553,12.825 1.914,8.573 1.572,6.923 9.738,4.795 "/>
	</g>
	<g class="referee">
		<polygon fill="#DDDDDD" points="53.724,6.667 44.227,6.667 45.228,2.667 52.723,2.667 "/>
		<polygon fill="#F0F0F0" points="52.99,8.667 44.961,8.667 45.807,4.667 52.143,4.667 "/>
		<polygon fill="#333132" points="63.19,6.859 55.173,4.707 57.34,14.875 55.173,4.707 55.024,4.667 42.785,4.667 40.545,12.83 39.478,30.667 58.284,30.667 57.209,12.686 61.886,13.171 "/>
		<polygon fill="#333132" points="42.738,4.667 34.572,6.828 35.876,13.142 40.553,12.702 40.545,12.83 42.785,4.667 "/>
		<polygon opacity="0.25" fill="#EFF3F3" points="42.738,4.667 57.68,20.692 56.758,8.541 61.886,13.187 63.19,6.851 55.024,4.667 "/>
		<polygon class="stripe" fill="#F3F4E4" points="34.914,8.573 42.14,7.015 41.267,10.2 35.494,11.293 "/>
		<polygon class="stripe" fill="#F3F4E4" points="62.826,8.448 55.914,7.015 56.787,10.2 62.247,11.168 "/>
		<polygon class="shadow" opacity="0.25" fill="#EFF3F3" points="40.553,12.825 34.914,8.573 34.572,6.923 42.738,4.795 "/>
		<polygon class="stripe" fill="#F3F4E4" points="42.015,30.667 44.961,4.667 47,4.667 45.75,30.667 "/>
		<polygon class="stripe" fill="#F3F4E4" points="56,30.667 53.055,4.667 51.015,4.667 52.265,30.667 "/>
	</g>
	<g>
		<polygon fill="#DDDDDD" points="85.724,43.667 76.227,43.667 77.228,39.667 84.723,39.667 "/>
		<polygon fill="#F0F0F0" points="84.99,45.667 76.961,45.667 77.807,41.667 84.143,41.667 "/>
		<polygon fill="#3B3B3B" points="87.024,41.667 95.19,43.859 93.886,50.171 89.209,49.686 90.284,67.667 71.478,67.667 72.553,49.702 67.876,50.142 66.572,43.828 74.738,41.667 "/>
		<polygon fill="#4B4B4B" points="74.738,41.667 89.68,57.692 88.758,45.541 93.886,50.187 95.19,43.851 87.024,41.667 "/>
		<polygon fill="#4B4B4B" points="72.553,49.825 66.914,45.573 66.572,43.923 74.738,41.795 "/>
	</g>
	<g>
		<polygon fill="#DDDDDD" points="20.724,43.667 11.227,43.667 12.228,39.667 19.723,39.667 "/>
		<polygon fill="#F0F0F0" points="19.99,45.667 11.961,45.667 12.807,41.667 19.143,41.667 "/>
		<polygon fill="#A5A5A5" points="22.024,41.667 30.19,43.859 28.886,50.171 24.209,49.686 25.284,67.667 6.478,67.667 7.553,49.702 2.876,50.142 1.572,43.828 9.738,41.667 "/>
		<polygon fill="#CECECE" points="9.738,41.667 24.68,57.692 23.758,45.541 28.886,50.187 30.19,43.851 22.024,41.667 "/>
		<polygon fill="#CECECE" points="7.553,49.825 1.914,45.573 1.572,43.923 9.738,41.795 "/>
	</g>
	<g>
		<polygon fill="#DDDDDD" points="85.724,6.667 76.227,6.667 77.228,2.667 84.723,2.667 "/>
		<polygon fill="#F0F0F0" points="84.99,8.667 76.961,8.667 77.807,4.667 84.143,4.667 "/>
		<polygon fill="#06524D" points="87.024,4.667 95.19,6.859 93.886,13.171 89.209,12.686 90.284,30.667 71.478,30.667 72.553,12.702 67.876,13.142 66.572,6.828 74.738,4.667 "/>
		<polygon fill="#03638F" points="74.738,4.667 89.68,20.692 88.758,8.541 93.886,13.187 95.19,6.851 87.024,4.667 "/>
		<polygon fill="#03638F" points="72.553,12.825 66.914,8.573 66.572,6.923 74.738,4.795 "/>
	</g>


</g>
</svg>
