<?xml version="1.0" standalone="no"?>
<!DOCTYPE svg PUBLIC "-//W3C//DTD SVG 1.1//EN" "http://www.w3.org/Graphics/SVG/1.1/DTD/svg11.dtd" >
<svg xmlns="http://www.w3.org/2000/svg">
<metadata>
Created by FontPrep 20130207 at Wed Jun 11 11:11:28 2014
 By Alexandre Cougard
Copyright (c) The Font Bureau, Inc., 2003. All rights reserved.
</metadata>
<defs>
<font id="ae7901b26c7bc0ae18e1b2162d35ce34" horiz-adv-x='1024' >
  <font-face 
    font-family="Interstate-Bold"
    font-weight="700"
    font-stretch="normal"
    units-per-em="2048"
    panose-1="2 0 5 3 3 0 0 2 0 4"
    ascent="1638"
    descent="-410"
    x-height="1075"
    cap-height="1434"
    bbox="-127 -395 2836 1864"
    underline-thickness="40"
    underline-position="-231"
    unicode-range="U+0020-FB02"
  />
<missing-glyph horiz-adv-x="1024" 
 />
    <glyph glyph-name="fi" unicode="fi" horiz-adv-x="1320" 
d="M1174 0h-283v1075h283v-1075zM489 1165v-90h183v-266h-183v-809h-282v809h-129v266h129v129q0 283 307 283q104 0 178 -31v-227q-45 23 -102 23t-79 -20q-22 -19 -22 -67zM1194 1325q0 -66 -48 -114t-114 -48t-114 48t-48 114t48 114t114 48t114 -48t48 -114z" />
    <glyph glyph-name="fl" unicode="fl" horiz-adv-x="1320" 
d="M489 1165v-90h183v-266h-183v-809h-282v809h-129v266h129v129q0 283 307 283q104 0 178 -31v-227q-45 23 -102 23t-79 -20q-22 -19 -22 -67zM1174 0h-283v1352l283 141v-1493z" />
    <glyph glyph-name=".notdef" horiz-adv-x="1024" 
 />
    <glyph glyph-name=".null" horiz-adv-x="0" 
 />
    <glyph glyph-name="nonmarkingreturn" horiz-adv-x="681" 
 />
    <glyph glyph-name="space" unicode=" " horiz-adv-x="593" 
 />
    <glyph glyph-name="space" unicode="&#xa0;" horiz-adv-x="593" 
 />
    <glyph glyph-name="exclam" unicode="!" horiz-adv-x="696" 
d="M522 152q0 -70 -52 -122t-122 -52t-122 52t-52 122t52 122t122 52t122 -52t52 -122zM205 1434h287v-590l-48 -393h-192l-47 393v590z" />
    <glyph glyph-name="quotedbl" unicode="&#x22;" horiz-adv-x="1081" 
d="M455 1434l-72 -670h-195l-71 670h338zM965 1434l-72 -670h-195l-71 670h338z" />
    <glyph glyph-name="numbersign" unicode="#" horiz-adv-x="1515" 
d="M918 522v389h-320v-389h320zM1413 287h-246v-287h-249v287h-320v-287h-250v287h-246v235h246v389h-246v236h246v287h250v-287h320v287h249v-287h246v-236h-246v-389h246v-235z" />
    <glyph glyph-name="dollar" unicode="$" horiz-adv-x="1341" 
d="M1229 434q0 -375 -406 -436v-203h-286v203q-291 45 -428 250l206 184q141 -164 367 -164q131 0 190 33q60 33 60 109t-62 114t-215 75q-155 36 -227 64q-182 70 -233 197q-31 74 -31 176q0 156 102 260t271 138v204h286v-206q211 -39 375 -211l-207 -201
q-143 147 -337 147t-193 -118q0 -66 56 -99q55 -33 185 -62q130 -28 186 -46t127 -54t113 -80q42 -42 71 -113q30 -71 30 -161z" />
    <glyph glyph-name="percent" unicode="%" horiz-adv-x="2045" 
d="M1739 420q-1 258 -149 258t-148 -256t149 -256q72 0 110 68t38 186zM604 1008q0 258 -148 258t-148 -256t149 -256q71 0 109 68t38 186zM1968 425q0 -202 -108 -325t-273 -123q-166 0 -270 120q-105 120 -105 324q0 203 104 325t276 122q171 0 274 -120
q102 -121 102 -323zM1585 1434l-878 -1434h-248l878 1434h248zM78 1009q0 203 104 325t276 122t274 -120t102 -323q0 -202 -108 -325t-274 -123t-270 120t-104 324z" />
    <glyph glyph-name="ampersand" unicode="&#x26;" horiz-adv-x="1433" 
d="M809 295l-281 307q-158 -84 -157 -219q0 -70 55 -111q55 -40 175 -40t208 63zM633 1202q-135 0 -135 -104q0 -56 75 -146l396 -450q47 96 100 237l231 -73q-70 -217 -161 -359l270 -307h-328l-108 117q-171 -139 -407 -139t-359 94q-123 96 -123 286q0 144 75 242
t218 170l-37 41q-125 139 -125 300t119 253t307 92q125 0 221 -36t207 -113l-137 -207q-135 102 -299 102z" />
    <glyph glyph-name="quotesingle" unicode="'" horiz-adv-x="581" 
d="M465 1434l-72 -670h-205l-71 670h348z" />
    <glyph glyph-name="parenleft" unicode="(" horiz-adv-x="757" 
d="M131 618q0 264 89 459t265 389l185 -127q-244 -315 -244 -714q0 -227 62 -397t182 -326l-185 -127q-170 188 -262 383q-92 196 -92 460z" />
    <glyph glyph-name="parenright" unicode=")" horiz-adv-x="757" 
d="M627 624q0 -265 -89 -460t-266 -389l-184 127q244 315 244 714q0 228 -62 398t-182 325l184 127q170 -188 262 -382t93 -460z" />
    <glyph glyph-name="asterisk" unicode="*" horiz-adv-x="1024" 
d="M956 850l-108 -186l-250 167l23 -299h-218l21 304l-250 -168l-106 184l288 131l-288 133l106 187l250 -170l-21 301h218l-23 -299l250 170l108 -187l-294 -133z" />
    <glyph glyph-name="plus" unicode="+" horiz-adv-x="1255" 
d="M1143 571h-375v-389h-281v389h-374v267h374v389h281v-389h375v-267z" />
    <glyph glyph-name="comma" unicode="," horiz-adv-x="557" 
d="M467 346l-172 -604h-193l31 604h334z" />
    <glyph glyph-name="hyphen" unicode="-" horiz-adv-x="833" 
d="M711 602h-588v283h588v-283z" />
    <glyph glyph-name="hyphen" unicode="&#xad;" horiz-adv-x="833" 
d="M711 602h-588v283h588v-283z" />
    <glyph glyph-name="period" unicode="." horiz-adv-x="557" 
d="M471 170q0 -78 -57 -135t-135 -57q-77 0 -135 56q-58 58 -58 136t57 135t135 57t136 -57q57 -57 57 -135z" />
    <glyph glyph-name="slash" unicode="/" horiz-adv-x="962" 
d="M954 1618l-667 -1802h-279l668 1802h278z" />
    <glyph glyph-name="zero" unicode="0" horiz-adv-x="1409" 
d="M1016 717q0 205 -78 332t-235 127t-233 -125t-77 -330q0 -205 78 -334t234 -129q155 0 233 127t78 332zM705 1456q287 0 445 -200t157 -536q0 -335 -159 -539t-446 -204q-288 0 -444 202t-156 538q0 335 158 537t445 202z" />
    <glyph glyph-name="one" unicode="1" horiz-adv-x="788" 
d="M610 0h-284v1036h-246v211q252 12 293 187h237v-1434z" />
    <glyph glyph-name="two" unicode="2" horiz-adv-x="1398" 
d="M1251 0h-1122q6 403 280 632q89 75 177 125t202 101q162 70 162 172q0 62 -57 104t-178 42q-227 0 -408 -172l-184 215q233 238 582 237q258 0 395 -104t137 -313t-163 -324q-74 -53 -232 -126q-311 -144 -353 -313h762v-276z" />
    <glyph glyph-name="three" unicode="3" horiz-adv-x="1320" 
d="M1204 444q0 -227 -160 -347t-434 -120q-338 0 -567 275l217 176q162 -170 377 -170q276 0 276 182q0 164 -211 164h-170v281h154q168 0 168 145q0 62 -57 104t-183 42q-162 0 -280 -121l-209 190q104 111 220 161t273 50q230 0 378 -105t149 -300q0 -109 -47 -183
t-119 -110q89 -33 157 -110t68 -204z" />
    <glyph glyph-name="four" unicode="4" horiz-adv-x="1423" 
d="M874 559v234q0 45 4 167t3 146q-61 -84 -127 -162l-205 -239q-78 -94 -135 -150l284 4h176zM1339 293h-188v-293h-277v293h-784v258l760 883h301v-875h188v-266z" />
    <glyph glyph-name="five" unicode="5" horiz-adv-x="1368" 
d="M1262 500q0 -252 -163 -387t-455 -135t-540 153l140 244q213 -121 420 -121q147 0 227 60t80 170t-68 164t-176 54q-160 0 -283 -86l-272 101l49 717h955v-277h-691l-16 -248q121 66 301 66q232 0 362 -132t130 -343z" />
    <glyph glyph-name="six" unicode="6" horiz-adv-x="1357" 
d="M979 459q0 213 -293 213t-293 -215q0 -101 74 -157t213 -56t219 58t80 157zM780 932q210 0 350 -118t140 -347t-170 -359t-429 -130t-417 144q-158 146 -158 421t126 492q71 122 177 213q105 92 277 150t385 58v-278q-500 0 -625 -336q135 90 344 90z" />
    <glyph glyph-name="seven" unicode="7" horiz-adv-x="1292" 
d="M690 0h-293q0 678 422 1161h-729v273h1075v-277q-475 -465 -475 -1157z" />
    <glyph glyph-name="eight" unicode="8" horiz-adv-x="1437" 
d="M1032 434q0 205 -313 205q-158 0 -236 -53q-77 -54 -77 -150t87 -151t230 -55t226 52q83 54 83 152zM971 1037q1 75 -59 123t-190 48t-192 -48t-63 -121t65 -119t190 -46t186 44t63 119zM1319 450q0 -223 -161 -348q-162 -125 -440 -125t-438 121t-161 332q0 250 227 348
q-166 90 -166 252q0 205 152 316q152 110 383 110t387 -108t155 -306q0 -172 -165 -264q227 -105 227 -328z" />
    <glyph glyph-name="nine" unicode="9" horiz-adv-x="1357" 
d="M965 977q0 101 -73 157t-213 56t-220 -57t-80 -158q0 -213 293 -213t293 215zM297 256q500 0 625 336q-135 -90 -344 -90t-350 118q-140 118 -140 347t170 359t429 130t417 -145t158 -419t-126 -494q-72 -122 -178 -213t-277 -149t-384 -59v279z" />
    <glyph glyph-name="colon" unicode=":" horiz-adv-x="557" 
d="M471 170q0 -78 -57 -135t-135 -57q-77 0 -135 56q-58 58 -58 136t57 135t135 57t136 -57q57 -57 57 -135zM471 905q0 -78 -57 -135t-135 -57t-136 57q-57 57 -57 135t57 135q57 58 135 58t136 -58q57 -58 57 -135z" />
    <glyph glyph-name="semicolon" unicode=";" horiz-adv-x="557" 
d="M453 346l-172 -604h-193l31 604h334zM471 905q0 -78 -57 -135t-135 -57t-136 57q-57 57 -57 135t57 135q57 58 135 58t136 -58q57 -58 57 -135z" />
    <glyph glyph-name="less" unicode="&#x3c;" horiz-adv-x="921" 
d="M795 57l-678 551v193l678 551v-353l-383 -292l383 -295v-355z" />
    <glyph glyph-name="equal" unicode="=" horiz-adv-x="1255" 
d="M1092 330h-928v264h928v-264zM1092 815h-928v264h928v-264z" />
    <glyph glyph-name="greater" unicode="&#x3e;" horiz-adv-x="921" 
d="M805 608l-678 -551v353l383 292l-383 295v355l678 -551v-193z" />
    <glyph glyph-name="question" unicode="?" horiz-adv-x="1196" 
d="M725 152q0 -70 -51 -122t-123 -52t-123 52t-51 122t51 122t123 52t123 -52t51 -122zM1118 1038q0 -240 -207 -338q-129 -61 -173 -110t-48 -139h-280q0 153 61 249t227 172q78 35 106 67t27 87q0 150 -243 150q-197 0 -359 -172l-184 215q227 238 543 237q244 0 387 -106
t143 -312z" />
    <glyph glyph-name="at" unicode="@" horiz-adv-x="1712" 
d="M817 705q-129 0 -129 -109q0 -49 32 -81t97 -32q109 0 154 80v105q-63 37 -154 37zM1595 737q0 -219 -83 -320q-84 -101 -234 -101t-231 112q-109 -115 -263 -115q-122 0 -208 74t-86 204t90 199t231 68q86 0 160 -39v51q0 49 -31 80t-90 31q-115 0 -219 -53l-76 135
q135 80 287 80t241 -73q88 -73 88 -204v-293q0 -137 127 -137q178 0 179 303q-1 248 -179 424t-444 176t-442 -176t-176 -444q0 -267 176 -445t444 -178q145 0 266 60l49 -109q-154 -70 -315 -70q-322 0 -530 209t-209 531q0 323 209 531q208 208 530 208t530 -210t209 -509
z" />
    <glyph glyph-name="A" unicode="A" horiz-adv-x="1536" 
d="M928 592l-92 260q-55 160 -72 223q-16 -63 -72 -223l-92 -260h328zM1454 0h-315l-113 319h-524l-113 -319h-307l549 1434h278z" />
    <glyph glyph-name="B" unicode="B" horiz-adv-x="1454" 
d="M1051 459q0 184 -205 184h-381v-371h381q102 0 154 50t51 137zM844 897q162 0 162 136t-177 136h-364v-272h379zM1346 464q0 -222 -138 -343t-372 -121h-652v1434h658q211 0 333 -98q121 -98 121 -283q0 -184 -151 -277q201 -90 201 -312z" />
    <glyph glyph-name="C" unicode="C" horiz-adv-x="1372" 
d="M743 262q94 0 159 43t122 139l242 -143q-158 -324 -531 -324q-283 0 -455 201t-171 534q0 332 178 538t458 206q371 0 525 -317l-266 -123q-82 156 -263 155q-157 -1 -247 -125t-90 -326t90 -330q92 -128 249 -128z" />
    <glyph glyph-name="D" unicode="D" horiz-adv-x="1447" 
d="M612 279q219 1 329 117t110 330q-1 214 -103 322t-325 107h-152v-876h141zM1346 717q0 -421 -316 -609q-181 -108 -418 -108h-428v1434h449q329 0 521 -172t192 -545z" />
    <glyph glyph-name="E" unicode="E" horiz-adv-x="1331" 
d="M1210 0h-1026v1434h996v-281h-709v-248h412v-278h-412v-346h739v-281z" />
    <glyph glyph-name="F" unicode="F" horiz-adv-x="1280" 
d="M1210 1153h-739v-270h432v-279h-432v-604h-287v1434h1026v-281z" />
    <glyph glyph-name="G" unicode="G" horiz-adv-x="1429" 
d="M1311 555q0 -270 -160 -424q-159 -154 -429 -154t-442 201t-171 534q0 332 178 538t458 206q211 0 340 -91t203 -267l-272 -113q-46 92 -106 139t-169 47q-157 -1 -247 -125t-90 -328t90 -332q92 -128 249 -128q252 0 281 217h-227v268h514v-188z" />
    <glyph glyph-name="H" unicode="H" horiz-adv-x="1529" 
d="M1346 0h-287v602h-588v-602h-287v1434h287v-549h588v549h287v-1434z" />
    <glyph glyph-name="I" unicode="I" horiz-adv-x="696" 
d="M492 0h-287v1434h287v-1434z" />
    <glyph glyph-name="J" unicode="J" horiz-adv-x="1331" 
d="M1157 598q0 -291 -135 -456t-408 -165q-209 0 -351 115t-197 309l280 76q42 -113 104 -164t164 -51q256 0 256 328v844h287v-836z" />
    <glyph glyph-name="K" unicode="K" horiz-adv-x="1474" 
d="M471 0h-287v1434h287v-408q0 -137 -4 -227q23 37 113 145l401 490h346l-420 -496l527 -938h-344l-390 692l-229 -270v-422z" />
    <glyph glyph-name="L" unicode="L" horiz-adv-x="1269" 
d="M1190 0h-1006v1434h287v-1151h719v-283z" />
    <glyph glyph-name="M" unicode="M" horiz-adv-x="1710" 
d="M465 0h-281v1434h277l299 -650q55 -119 98 -239q39 111 96 239l289 650h283v-1434h-287v526q0 41 2 166t2 150q-39 -100 -100 -238l-291 -637l-291 637q-61 137 -100 238l4 -316v-526z" />
    <glyph glyph-name="N" unicode="N" horiz-adv-x="1529" 
d="M1063 1434h283v-1434h-256l-527 782q-82 127 -100 162l4 -313v-631h-283v1434h275l508 -758q82 -127 100 -162l-4 313v607z" />
    <glyph glyph-name="O" unicode="O" horiz-adv-x="1472" 
d="M1073 715q0 215 -93 336t-247 121t-244 -120q-90 -118 -90 -333q-1 -215 93 -336t248 -121t243 119q90 119 90 334zM1368 719q0 -342 -175 -542t-459 -200t-456 198t-174 540q0 341 176 541t458 200q284 0 457 -198t173 -539z" />
    <glyph glyph-name="P" unicode="P" horiz-adv-x="1392" 
d="M1010 971q0 184 -209 184h-330v-369h334q205 1 205 185zM811 1434q215 0 355 -118t139 -346q1 -228 -141 -346q-142 -116 -378 -116h-315v-508h-287v1434h627z" />
    <glyph glyph-name="Q" unicode="Q" horiz-adv-x="1462" 
d="M1059 714q0 208 -81 333t-247 125t-247 -126q-81 -124 -81 -331t84 -337t250 -130q18 0 47 4l-96 143l219 144l92 -138q60 105 60 313zM731 1456q289 0 456 -204t167 -544q0 -341 -195 -542l107 -156l-219 -143l-103 149q-96 -39 -213 -39q-289 0 -456 204t-166 536
q1 331 167 535t455 204z" />
    <glyph glyph-name="R" unicode="R" horiz-adv-x="1462" 
d="M1051 971q0 184 -205 184h-375v-369h375q205 1 205 185zM471 516v-516h-287v1434h668q215 0 354 -118t140 -337q0 -313 -275 -422l275 -557h-330l-256 516h-289z" />
    <glyph glyph-name="S" unicode="S" horiz-adv-x="1353" 
d="M1235 434q0 -213 -140 -335t-423 -122q-178 0 -326 70t-231 191l207 184q141 -164 366 -164q129 0 190 37q60 37 60 114t-61 115t-215 75q-154 36 -228 64q-182 70 -233 197q-31 74 -31 176q0 190 146 305t366 115q307 0 522 -225l-207 -201q-143 147 -325 148
q-106 0 -156 -38t-49 -98q0 -60 56 -92q55 -33 185 -62q130 -28 186 -46t127 -54t113 -80q42 -42 72 -113t29 -161z" />
    <glyph glyph-name="T" unicode="T" horiz-adv-x="1294" 
d="M1202 1151h-411v-1151h-287v1151h-412v283h1110v-283z" />
    <glyph glyph-name="U" unicode="U" horiz-adv-x="1509" 
d="M1335 633q1 -311 -153 -483t-423 -172t-427 172t-158 479v805h287v-801q0 -171 79 -273t215 -102t215 99t79 272v805h286v-801z" />
    <glyph glyph-name="V" unicode="V" horiz-adv-x="1462" 
d="M1380 1434l-510 -1434h-278l-510 1434h317l271 -830q39 -119 67 -235q25 106 66 235l264 830h313z" />
    <glyph glyph-name="W" unicode="W" horiz-adv-x="1804" 
d="M1702 1434l-299 -1434h-281l-176 737q-33 135 -49 246q-12 -100 -47 -246l-180 -737h-269l-299 1434h299l125 -699q25 -143 35 -235q16 100 49 235l168 699h250l170 -699q33 -135 49 -235q10 102 35 235l125 699h295z" />
    <glyph glyph-name="X" unicode="X" horiz-adv-x="1437" 
d="M1346 0h-342l-130 217q-96 162 -155 281q-37 -78 -156 -281l-129 -217h-342l455 733l-434 701h342l108 -185q96 -162 156 -280q55 113 155 280l109 185h342l-436 -701z" />
    <glyph glyph-name="Y" unicode="Y" horiz-adv-x="1462" 
d="M874 0h-286v561l-543 873h330l203 -340q96 -162 155 -281q55 113 156 281l203 340h325l-543 -867v-567z" />
    <glyph glyph-name="Z" unicode="Z" horiz-adv-x="1409" 
d="M1270 0h-1131v254l617 735q98 121 164 187q-115 -4 -291 -5h-449v263h1080v-254l-611 -736q-98 -121 -164 -186q115 4 291 4h494v-262z" />
    <glyph glyph-name="bracketleft" unicode="[" horiz-adv-x="849" 
d="M721 -225h-526v1659h526v-226h-250v-1208h250v-225z" />
    <glyph glyph-name="backslash" unicode="\" horiz-adv-x="962" 
d="M954 -184h-278l-668 1802h279z" />
    <glyph glyph-name="bracketright" unicode="]" horiz-adv-x="849" 
d="M655 -225h-526v225h250v1208h-250v226h526v-1659z" />
    <glyph glyph-name="asciicircum" unicode="^" horiz-adv-x="1183" 
d="M1087 782h-290l-207 381l-207 -381h-287l383 652h226z" />
    <glyph glyph-name="underscore" unicode="_" horiz-adv-x="1024" 
d="M1024 -383h-1024v236h1024v-236z" />
    <glyph glyph-name="grave" unicode="`" horiz-adv-x="1024" 
d="M741 1219h-239l-297 327h358z" />
    <glyph glyph-name="a" unicode="a" horiz-adv-x="1138" 
d="M532 496q-164 0 -163 -136q0 -63 40 -103q41 -40 115 -40q74 1 127 29t78 69v136q-72 45 -197 45zM1012 0h-283v72q-90 -94 -248 -94q-159 0 -277 98q-118 100 -118 278t122 270t314 93q121 0 207 -43v53q0 59 -40 98t-124 39t-146 -15t-138 -56l-109 196
q188 109 395 109t326 -100t119 -277v-721z" />
    <glyph glyph-name="b" unicode="b" horiz-adv-x="1150" 
d="M778 518q0 313 -184 313q-104 0 -174 -90v-405q68 -92 190 -92q168 0 168 274zM647 1098q184 0 301 -144t117 -410t-111 -416t-307 -151q-135 0 -227 84v-61h-283v1352l283 141v-485q102 90 227 90z" />
    <glyph glyph-name="c" unicode="c" horiz-adv-x="1099" 
d="M82 538q0 244 145 402t371 158q270 0 426 -238l-186 -188q-54 76 -110 114t-147 39q-91 0 -151 -79q-60 -78 -61 -208q0 -130 61 -209t162 -79q139 0 254 137l180 -170q-88 -117 -189 -178t-251 -62q-213 0 -359 158q-145 158 -145 403z" />
    <glyph glyph-name="d" unicode="d" horiz-adv-x="1150" 
d="M537 831q-168 0 -168 -274q0 -313 184 -313q104 0 174 90v405q-68 92 -190 92zM1010 0h-283v68q-102 -90 -227 -91q-184 -1 -301 143t-117 410t111 418q111 150 307 150q135 0 227 -84v338l283 141v-1493z" />
    <glyph glyph-name="e" unicode="e" horiz-adv-x="1101" 
d="M554 852q-81 0 -128 -54t-55 -139h368q-6 81 -55 137t-130 56zM1014 537q0 -49 -4 -91h-643q7 -102 71 -152t166 -50t168 75l201 -167q-63 -82 -169 -128t-216 -47q-231 0 -369 152q-137 152 -137 403q0 250 136 408t344 158t330 -160t122 -401z" />
    <glyph glyph-name="f" unicode="f" horiz-adv-x="757" 
d="M489 1165v-90h183v-266h-183v-809h-282v809h-129v266h129v129q0 283 307 283q104 0 178 -31v-227q-45 23 -102 23t-79 -20q-22 -19 -22 -67z" />
    <glyph glyph-name="g" unicode="g" horiz-adv-x="1150" 
d="M537 831q-168 0 -168 -274q0 -313 184 -313q104 0 174 90v405q-68 92 -190 92zM1010 182q0 -280 -96 -414t-367 -163l-101 213q166 23 224 73q57 51 57 177q-102 -90 -227 -91q-184 -1 -301 143t-117 410t111 418q111 150 307 150q135 0 227 -84v61h283v-893z" />
    <glyph glyph-name="h" unicode="h" horiz-adv-x="1196" 
d="M1069 0h-283v582q0 139 -45 194t-137 55t-138 -55t-46 -188v-588h-283v1352l283 141v-489q90 94 252 94q201 0 299 -129t98 -363v-606z" />
    <glyph glyph-name="i" unicode="i" horiz-adv-x="577" 
d="M430 0h-283v1075h283v-1075zM451 1325q-1 -66 -49 -114t-114 -48t-113 48q-48 48 -48 114t48 114t114 48t114 -48t48 -114z" />
    <glyph glyph-name="j" unicode="j" horiz-adv-x="577" 
d="M430 80q0 -228 -89 -332t-333 -143l-98 217q147 29 192 75t45 171v1007h283v-995zM451 1325q-1 -66 -49 -114t-114 -48t-113 48q-48 48 -48 114t48 114t114 48t114 -48t48 -114z" />
    <glyph glyph-name="k" unicode="k" horiz-adv-x="1128" 
d="M420 0h-283v1352l283 141v-571q0 -123 -4 -230q51 76 114 158l175 225h333l-276 -342l309 -733h-309l-205 496l-137 -170v-326z" />
    <glyph glyph-name="l" unicode="l" horiz-adv-x="577" 
d="M430 0h-283v1352l283 141v-1493z" />
    <glyph glyph-name="m" unicode="m" horiz-adv-x="1804" 
d="M1677 0h-282v582q0 139 -41 194t-131 55t-132 -54t-42 -189v-588h-283v582q0 139 -41 194t-131 55t-132 -54t-42 -189v-588h-283v1075h283v-71q90 94 235 94q102 0 169 -32t128 -105q133 137 342 137q383 0 383 -492v-606z" />
    <glyph glyph-name="n" unicode="n" horiz-adv-x="1196" 
d="M1069 0h-283v582q0 139 -45 194t-137 55t-138 -55t-46 -188v-588h-283v1075h283v-71q90 94 252 94q201 0 299 -129t98 -363v-606z" />
    <glyph glyph-name="o" unicode="o" horiz-adv-x="1136" 
d="M768 541q0 125 -51 205t-149 79q-98 0 -149 -79q-50 -78 -50 -208t50 -209t147 -79t150 83q52 83 52 208zM1055 537q-1 -246 -139 -403t-349 -157t-348 157t-137 403q0 245 137 403t348 158t349 -158t139 -403z" />
    <glyph glyph-name="p" unicode="p" horiz-adv-x="1150" 
d="M778 518q0 313 -184 313q-104 0 -174 -90v-405q68 -92 190 -92q168 0 168 274zM647 1098q184 0 301 -144t117 -410t-111 -416t-307 -151q-135 0 -227 84v-315l-283 -141v1470h283v-67q102 90 227 90z" />
    <glyph glyph-name="q" unicode="q" horiz-adv-x="1150" 
d="M537 831q-168 0 -168 -274q0 -313 184 -313q104 0 174 90v405q-68 92 -190 92zM82 530q0 266 111 418q111 150 307 150q135 0 227 -84v61h283v-1329l-283 -141v463q-102 -90 -227 -91q-184 -1 -301 143t-117 410z" />
    <glyph glyph-name="r" unicode="r" horiz-adv-x="876" 
d="M601 815q-89 0 -135 -51t-46 -182v-582h-283v1075h283v-71q90 94 219 94t201 -76l-74 -277q-76 70 -165 70z" />
    <glyph glyph-name="s" unicode="s" horiz-adv-x="1099" 
d="M987 313q0 -174 -121 -255t-317 -81q-262 0 -451 125l95 215q178 -98 372 -98q80 -1 112 19t32 60t-34 62t-124 50q-275 83 -350 163q-74 80 -74 205q0 162 116 241q115 79 319 79t392 -105l-90 -223q-160 86 -313 86q-82 0 -114 -16q-31 -16 -31 -52t40 -60
q40 -22 154 -58q115 -36 168 -61q149 -68 193 -160q26 -58 26 -136z" />
    <glyph glyph-name="t" unicode="t" horiz-adv-x="905" 
d="M521 -23q-132 1 -211 91t-79 233v508h-180v266h180v277l283 141v-418h258v-266h-258v-432q0 -74 26 -102q26 -27 84 -27t154 82l-41 -287q-84 -66 -216 -66z" />
    <glyph glyph-name="u" unicode="u" horiz-adv-x="1196" 
d="M1059 0h-283v72q-90 -94 -252 -95q-201 0 -299 129t-98 363v606h283v-581q0 -138 45 -194t137 -56t138 55t46 188v588h283v-1075z" />
    <glyph glyph-name="v" unicode="v" horiz-adv-x="1167" 
d="M1116 1075l-387 -1075h-291l-387 1075h311l158 -497q43 -131 68 -236q18 82 67 236l158 497h303z" />
    <glyph glyph-name="w" unicode="w" horiz-adv-x="1519" 
d="M1468 1075l-309 -1075h-235l-107 422q-49 199 -57 254q-8 -55 -58 -254l-106 -422h-236l-309 1075h287l94 -397q41 -182 51 -246q12 76 58 246l106 397h234l106 -397q45 -170 57 -246q10 63 52 246l94 397h278z" />
    <glyph glyph-name="x" unicode="x" horiz-adv-x="1175" 
d="M1130 0h-335l-109 178q-61 100 -98 174q-18 -41 -99 -174l-108 -178h-336l381 582l-324 493h336l51 -88q61 -100 99 -174q16 35 98 174l51 88h336l-323 -493z" />
    <glyph glyph-name="y" unicode="y" horiz-adv-x="1208" 
d="M1157 1075l-553 -1454h-278l143 379l-418 1075h311l177 -518q41 -119 69 -235q23 98 70 235l176 518h303z" />
    <glyph glyph-name="z" unicode="z" horiz-adv-x="1134" 
d="M1012 0h-889v205l391 465q33 42 80 92q47 51 55 61q-78 -4 -176 -4h-315v256h854v-205l-379 -464q-14 -18 -133 -154q78 4 176 4h336v-256z" />
    <glyph glyph-name="braceleft" unicode="{" horiz-adv-x="942" 
d="M834 -225q-279 -1 -411 107t-132 325v145q0 141 -123 142h-45v229h45q123 0 123 141v148q0 216 132 324t411 108v-187q-150 -14 -203 -74t-53 -192v-63q0 -158 -44 -224t-151 -96q106 -31 151 -96q44 -66 44 -223v-62q0 -131 53 -191t203 -75v-186z" />
    <glyph glyph-name="bar" unicode="|" horiz-adv-x="583" 
d="M420 -379h-256v2017h256v-2017z" />
    <glyph glyph-name="braceright" unicode="}" horiz-adv-x="942" 
d="M819 496h-45q-123 0 -123 -142v-147q0 -217 -132 -325t-410 -107v186q151 15 203 75t53 191v64q0 157 44 223t150 96q-106 31 -150 97t-44 223v61q1 131 -53 191t-203 75v187q279 0 411 -108t131 -324v-146q0 -141 123 -141h45v-229z" />
    <glyph glyph-name="asciitilde" unicode="~" horiz-adv-x="1150" 
d="M757 559q-101 0 -211 76t-152 76t-66 -26t-74 -120l-168 86q59 154 133 232t175 78t212 -76t152 -76q42 0 66 26t73 119l168 -86q-59 -154 -133 -232t-175 -77z" />
    <glyph glyph-name="exclamdown" unicode="&#xa1;" horiz-adv-x="696" 
d="M492 0h-287v590l47 393h192l48 -393v-590zM522 1282q0 -70 -52 -122t-122 -52t-122 52t-52 122t52 122t122 52t122 -52t52 -122z" />
    <glyph glyph-name="cent" unicode="&#xa2;" horiz-adv-x="1099" 
d="M707 -23h-277v218q-156 51 -252 194t-96 340t95 339t253 196v170h277v-154q190 -39 317 -227l-186 -176q-54 77 -110 115t-147 38t-151 -79t-61 -220q0 -141 60 -221t163 -80q139 0 254 137l180 -157q-139 -188 -319 -228v-205z" />
    <glyph glyph-name="sterling" unicode="&#xa3;" horiz-adv-x="1372" 
d="M752 1180q-100 0 -154 -37t-53 -97q0 -60 48 -143q48 -84 58 -119h314v-231h-293q-12 -160 -135 -307h712v-246h-1069v209q174 141 199 344h-199v231h162q-14 31 -51 93q-59 111 -60 202q-1 181 137 279t388 98q305 1 522 -194l-172 -211q-143 129 -354 129z" />
    <glyph glyph-name="currency" unicode="&#xa4;" horiz-adv-x="1306" 
d="M831 963v-189h-446q-2 -18 -2 -58t2 -59h446v-188h-415q76 -221 291 -221q98 0 160 46t130 152l234 -139q-90 -153 -213 -241t-316 -89q-284 0 -442 202t-158 542q0 339 165 537t440 198q203 0 315 -87t192 -275l-241 -117q-55 113 -113 161t-158 48q-214 0 -286 -223
h415z" />
    <glyph glyph-name="yen" unicode="&#xa5;" horiz-adv-x="1400" 
d="M838 457h333v-242h-333v-215h-275v215h-334v242h334v94l-518 883h330l188 -340q104 -186 139 -281q47 115 140 281l188 340h326l-518 -877v-100z" />
    <glyph glyph-name="brokenbar" unicode="&#xa6;" 
d="M924 608v-254l98 39q45 14 68 -22q14 -25 -7 -58l-264 -344l-270 344q-18 33 -4 58q25 37 71 22l95 -39v254h-285l41 -94q14 -47 -25 -72q-23 -14 -55 4l-346 271l346 264q31 20 55 6q37 -20 25 -67l-41 -99h285v258l-95 -39q-45 -16 -71 23q-14 25 4 57l270 344
l264 -344q20 -34 2 -64t-63 -16l-98 39v-258h288l-41 99q-12 47 19 64t63 -3l344 -264l-344 -271q-35 -18 -57 -4q-37 23 -25 74l41 92h-288z" />
    <glyph glyph-name="section" unicode="&#xa7;" horiz-adv-x="1433" 
d="M1047 494q0 61 -48 102q-48 42 -112 65q-63 23 -173 60t-196 78q-131 -55 -131 -172q0 -60 47 -102t112 -66q64 -23 174 -59t195 -78q132 55 132 172zM1321 514q0 -221 -225 -338q41 -68 41 -178q0 -146 -112 -240t-314 -94q-252 0 -441 139l142 197q143 -100 317 -100
q143 0 143 96q0 47 -58 77q-58 29 -280 103t-321 167q-100 93 -100 263q0 221 223 338q-39 70 -39 178q0 146 112 240t314 94q252 0 440 -139l-141 -197q-143 100 -317 101q-143 0 -144 -97q1 -46 59 -76t279 -104t321 -167t101 -263z" />
    <glyph glyph-name="dieresis" unicode="&#xa8;" horiz-adv-x="1024" 
d="M291 1536q66 0 113 -47t47 -111q-1 -64 -49 -112q-48 -47 -111 -47t-112 47q-48 48 -48 112t47 111t113 47zM734 1219q-64 0 -112 47q-48 48 -48 112t48 111t112 47t112 -47t47 -111q0 -64 -47 -112q-47 -47 -112 -47z" />
    <glyph glyph-name="copyright" unicode="&#xa9;" horiz-adv-x="1712" 
d="M864 305q-160 0 -256 113t-96 299t100 304t256 118q207 0 295 -178l-162 -91q-51 90 -135 91q-162 0 -161 -240q0 -113 43 -175q44 -62 122 -62t144 104l143 -99q-53 -92 -122 -138t-171 -46zM1464 717q0 260 -174 434t-434 174t-434 -174t-174 -434t174 -434t434 -174
t434 174t174 434zM1595 717q0 -315 -212 -527t-527 -213q-315 0 -527 212q-212 211 -212 527t212 528t527 212t527 -212t212 -527z" />
    <glyph glyph-name="ordfeminine" unicode="&#xaa;" horiz-adv-x="976" 
d="M463 969q-137 0 -137 -111q0 -51 34 -86t94 -35q60 -1 105 25t68 59v113q-61 35 -164 35zM850 565h-223v64q-76 -80 -205 -80t-225 80q-97 80 -97 224t100 219t255 75q102 0 172 -35v43q0 49 -34 82t-95 33q-133 0 -242 -60l-86 160q160 86 324 86t260 -81t96 -224v-586z
" />
    <glyph glyph-name="guillemotleft" unicode="&#xab;" horiz-adv-x="1286" 
d="M688 0h-293l-334 537l334 538h293l-323 -536zM1204 0h-293l-333 537l333 538h293l-323 -536z" />
    <glyph glyph-name="logicalnot" unicode="&#xac;" horiz-adv-x="1331" 
d="M92 575v267h711l-29 100q-16 53 27 82q33 25 73 -6l416 -307l-416 -314q-44 -27 -80 0t-20 82l29 96h-711z" />
    <glyph glyph-name="registered" unicode="&#xae;" horiz-adv-x="1712" 
d="M1034 876q0 103 -114 103h-193v-207h193q114 1 114 104zM1208 881q0 -174 -159 -236l155 -317h-192l-146 295h-139v-295h-170v807h375q124 -1 200 -65t76 -189zM1464 717q0 260 -174 434t-434 174t-434 -174t-174 -434t174 -434t434 -174t434 174t174 434zM1595 717
q0 -315 -212 -527t-527 -213q-315 0 -527 212q-212 211 -212 527t212 528t527 212t527 -212t212 -527z" />
    <glyph glyph-name="macron" unicode="&#xaf;" horiz-adv-x="1024" 
d="M809 1249h-594v215h594v-215z" />
    <glyph glyph-name="macron" unicode="&#x2c9;" horiz-adv-x="1024" 
d="M809 1249h-594v215h594v-215z" />
    <glyph glyph-name="degree" unicode="&#xb0;" horiz-adv-x="995" 
d="M498 1243q-80 0 -136 -56t-55 -136q0 -81 55 -137q54 -56 136 -56t136 56t54 137q0 82 -55 137t-135 55zM92 1052q0 172 118 288t289 116t287 -116t117 -289q0 -172 -117 -289q-118 -117 -288 -117t-288 118t-118 289z" />
    <glyph glyph-name="plusminus" unicode="&#xb1;" 
d="M924 608v-254l98 39q45 14 68 -22q14 -25 -7 -58l-264 -344l-270 344q-18 33 -4 58q25 37 71 22l95 -39v254h-285l41 -94q14 -47 -25 -72q-23 -14 -55 4l-346 271l346 264q31 20 55 6q37 -20 25 -67l-41 -99h285v258l-95 -39q-45 -16 -71 23q-14 25 4 57l270 344
l264 -344q20 -34 2 -64t-63 -16l-98 39v-258h288l-41 99q-12 47 19 64t63 -3l344 -264l-344 -271q-35 -18 -57 -4q-37 23 -25 74l41 92h-288z" />
    <glyph glyph-name="twosuperior" unicode="&#xb2;" 
d="M924 608v-254l98 39q45 14 68 -22q14 -25 -7 -58l-264 -344l-270 344q-18 33 -4 58q25 37 71 22l95 -39v254h-285l41 -94q14 -47 -25 -72q-23 -14 -55 4l-346 271l346 264q31 20 55 6q37 -20 25 -67l-41 -99h285v258l-95 -39q-45 -16 -71 23q-14 25 4 57l270 344
l264 -344q20 -34 2 -64t-63 -16l-98 39v-258h288l-41 99q-12 47 19 64t63 -3l344 -264l-344 -271q-35 -18 -57 -4q-37 23 -25 74l41 92h-288z" />
    <glyph glyph-name="threesuperior" unicode="&#xb3;" 
d="M924 608v-254l98 39q45 14 68 -22q14 -25 -7 -58l-264 -344l-270 344q-18 33 -4 58q25 37 71 22l95 -39v254h-285l41 -94q14 -47 -25 -72q-23 -14 -55 4l-346 271l346 264q31 20 55 6q37 -20 25 -67l-41 -99h285v258l-95 -39q-45 -16 -71 23q-14 25 4 57l270 344
l264 -344q20 -34 2 -64t-63 -16l-98 39v-258h288l-41 99q-12 47 19 64t63 -3l344 -264l-344 -271q-35 -18 -57 -4q-37 23 -25 74l41 92h-288z" />
    <glyph glyph-name="acute" unicode="&#xb4;" horiz-adv-x="1024" 
d="M819 1546l-297 -327h-239l178 327h358z" />
    <glyph glyph-name="mu" unicode="&#xb5;" 
d="M1597 711l-415 -314q-43 -27 -80 0t-21 82l29 96h-582l29 -100q16 -53 -27 -82q-33 -25 -73 6l-416 308l416 313q43 27 79 0t21 -82l-29 -96h582l-29 100q-16 53 27 82q33 25 74 -6z" />
    <glyph glyph-name="mu" unicode="&#x3bc;" 
d="M1597 711l-415 -314q-43 -27 -80 0t-21 82l29 96h-582l29 -100q16 -53 -27 -82q-33 -25 -73 6l-416 308l416 313q43 27 79 0t21 -82l-29 -96h582l-29 100q-16 53 27 82q33 25 74 -6z" />
    <glyph glyph-name="paragraph" unicode="&#xb6;" horiz-adv-x="1482" 
d="M1300 -379h-233v1596h-131v-1596h-234v914h-141q-197 1 -331 121t-134 328t134 329t331 121h739v-1813z" />
    <glyph glyph-name="periodcentered" unicode="&#xb7;" horiz-adv-x="557" 
d="M471 752q0 -78 -57 -136t-135 -57q-78 0 -136 57q-57 58 -57 136t57 135t135 57t136 -57q57 -57 57 -135z" />
    <glyph glyph-name="periodcentered" unicode="&#x2219;" horiz-adv-x="557" 
d="M471 752q0 -78 -57 -136t-135 -57q-78 0 -136 57q-57 58 -57 136t57 135t135 57t136 -57q57 -57 57 -135z" />
    <glyph glyph-name="cedilla" unicode="&#xb8;" horiz-adv-x="1024" 
d="M622 -72q60 0 105 -36t45 -118q0 -81 -66 -125t-196 -44q-132 0 -250 73l43 78q93 -49 193 -49t100 70q0 53 -64 53q-33 0 -61 -14l-74 28l56 232h114l-35 -162q30 14 90 14z" />
    <glyph glyph-name="onesuperior" unicode="&#xb9;" 
d="M924 608v-254l98 39q45 14 68 -22q14 -25 -7 -58l-264 -344l-270 344q-18 33 -4 58q25 37 71 22l95 -39v254h-285l41 -94q14 -47 -25 -72q-23 -14 -55 4l-346 271l346 264q31 20 55 6q37 -20 25 -67l-41 -99h285v258l-95 -39q-45 -16 -71 23q-14 25 4 57l270 344
l264 -344q20 -34 2 -64t-63 -16l-98 39v-258h288l-41 99q-12 47 19 64t63 -3l344 -264l-344 -271q-35 -18 -57 -4q-37 23 -25 74l41 92h-288z" />
    <glyph glyph-name="ordmasculine" unicode="&#xba;" horiz-adv-x="1005" 
d="M664 1005q0 100 -42 165t-120 65t-120 -65t-42 -169t41 -167q41 -64 120 -64t121 68t42 167zM897 1001q0 -199 -112 -325q-111 -126 -283 -127q-172 0 -283 127q-111 128 -111 326t111 326t283 128t284 -128t111 -327z" />
    <glyph glyph-name="guillemotright" unicode="&#xbb;" horiz-adv-x="1286" 
d="M709 539l-334 -539h-293l324 537l-324 538h293zM1225 539l-334 -539h-293l324 537l-324 538h293z" />
    <glyph glyph-name="onequarter" unicode="&#xbc;" 
d="M924 608v-254l98 39q45 14 68 -22q14 -25 -7 -58l-264 -344l-270 344q-18 33 -4 58q25 37 71 22l95 -39v254h-285l41 -94q14 -47 -25 -72q-23 -14 -55 4l-346 271l346 264q31 20 55 6q37 -20 25 -67l-41 -99h285v258l-95 -39q-45 -16 -71 23q-14 25 4 57l270 344
l264 -344q20 -34 2 -64t-63 -16l-98 39v-258h288l-41 99q-12 47 19 64t63 -3l344 -264l-344 -271q-35 -18 -57 -4q-37 23 -25 74l41 92h-288z" />
    <glyph glyph-name="onehalf" unicode="&#xbd;" 
d="M924 608v-254l98 39q45 14 68 -22q14 -25 -7 -58l-264 -344l-270 344q-18 33 -4 58q25 37 71 22l95 -39v254h-285l41 -94q14 -47 -25 -72q-23 -14 -55 4l-346 271l346 264q31 20 55 6q37 -20 25 -67l-41 -99h285v258l-95 -39q-45 -16 -71 23q-14 25 4 57l270 344
l264 -344q20 -34 2 -64t-63 -16l-98 39v-258h288l-41 99q-12 47 19 64t63 -3l344 -264l-344 -271q-35 -18 -57 -4q-37 23 -25 74l41 92h-288z" />
    <glyph glyph-name="threequarters" unicode="&#xbe;" 
d="M924 608v-254l98 39q45 14 68 -22q14 -25 -7 -58l-264 -344l-270 344q-18 33 -4 58q25 37 71 22l95 -39v254h-285l41 -94q14 -47 -25 -72q-23 -14 -55 4l-346 271l346 264q31 20 55 6q37 -20 25 -67l-41 -99h285v258l-95 -39q-45 -16 -71 23q-14 25 4 57l270 344
l264 -344q20 -34 2 -64t-63 -16l-98 39v-258h288l-41 99q-12 47 19 64t63 -3l344 -264l-344 -271q-35 -18 -57 -4q-37 23 -25 74l41 92h-288z" />
    <glyph glyph-name="questiondown" unicode="&#xbf;" horiz-adv-x="1196" 
d="M608 -23q-244 -1 -387 105t-143 313q0 240 207 338q129 61 173 111t48 139h280q0 -154 -61 -250t-227 -172q-78 -35 -106 -67t-27 -86q0 -150 243 -150q197 0 359 172l184 -215q-227 -238 -543 -238zM819 1282q0 -70 -51 -122t-123 -52t-123 52t-51 122t51 122t123 52
t123 -52t51 -122z" />
    <glyph glyph-name="Agrave" unicode="&#xc0;" horiz-adv-x="1536" 
d="M915 1526h-239l-297 327h358zM928 592l-92 260q-55 160 -72 223q-16 -63 -72 -223l-92 -260h328zM1454 0h-315l-113 319h-524l-113 -319h-307l549 1434h278z" />
    <glyph glyph-name="Aacute" unicode="&#xc1;" horiz-adv-x="1536" 
d="M1137 1853l-297 -327h-240l178 327h359zM928 592l-92 260q-55 160 -72 223q-16 -63 -72 -223l-92 -260h328zM1454 0h-315l-113 319h-524l-113 -319h-307l549 1434h278z" />
    <glyph glyph-name="Acircumflex" unicode="&#xc2;" horiz-adv-x="1536" 
d="M1159 1526h-190l-205 153l-205 -153h-186l250 327h286zM928 592l-92 260q-55 160 -72 223q-16 -63 -72 -223l-92 -260h328zM1454 0h-315l-113 319h-524l-113 -319h-307l549 1434h278z" />
    <glyph glyph-name="Atilde" unicode="&#xc3;" horiz-adv-x="1536" 
d="M1174 1815q0 -135 -65 -215t-171 -80q-61 0 -101 13t-109 52t-103 39q-53 0 -70 -98h-184q0 135 64 215q65 80 171 80q62 1 102 -13t108 -53t104 -39q53 0 69 99h185zM928 592l-92 260q-55 160 -72 223q-16 -63 -72 -223l-92 -260h328zM1454 0h-315l-113 319h-524
l-113 -319h-307l549 1434h278z" />
    <glyph glyph-name="Adieresis" unicode="&#xc4;" horiz-adv-x="1536" 
d="M545 1843q66 0 113 -47q47 -48 47 -112q-1 -64 -49 -111t-111 -47t-112 47q-48 47 -48 111t47 112q47 47 113 47zM988 1526q-64 0 -112 47t-48 111t48 112q48 47 112 47t112 -47q48 -48 47 -112q0 -64 -47 -111t-112 -47zM928 592l-92 260q-55 160 -72 223
q-16 -63 -72 -223l-92 -260h328zM1454 0h-315l-113 319h-524l-113 -319h-307l549 1434h278z" />
    <glyph glyph-name="Aring" unicode="&#xc5;" horiz-adv-x="1536" 
d="M928 592l-92 260q-55 160 -72 223q-16 -63 -72 -223l-92 -260h328zM891 1526q0 51 -35 87t-86 36t-86 -36t-35 -87t35 -87t86 -36t86 36t35 87zM494 1521q0 125 78 203t198 78q119 0 198 -79t79 -203t-95 -203l502 -1317h-315l-113 319h-524l-113 -319h-307l504 1317
q-92 80 -92 204z" />
    <glyph glyph-name="AE" unicode="&#xc6;" horiz-adv-x="2125" 
d="M1032 508v262q0 46 2 160t2 139q-57 -115 -164 -274l-186 -287h346zM2005 0h-973v256h-510l-166 -256h-327l962 1434h983v-275h-667v-258h370v-270h-370v-357h698v-274z" />
    <glyph glyph-name="Ccedilla" unicode="&#xc7;" horiz-adv-x="1372" 
d="M743 262q94 0 159 43t122 139l242 -143q-154 -317 -514 -324l-15 -63q29 14 89 14t106 -37q45 -37 45 -117t-66 -125q-66 -44 -197 -44t-249 73l43 78q92 -49 192 -49t101 70q0 53 -64 53q-33 0 -61 -14l-74 28l33 140q-240 36 -383 232t-143 512t178 522t458 206
q371 0 525 -317l-266 -123q-82 156 -263 155q-157 -1 -247 -125t-90 -326t90 -330q92 -128 249 -128z" />
    <glyph glyph-name="Egrave" unicode="&#xc8;" horiz-adv-x="1331" 
d="M838 1526h-240l-297 327h358zM1210 0h-1026v1434h996v-281h-709v-248h412v-278h-412v-346h739v-281z" />
    <glyph glyph-name="Eacute" unicode="&#xc9;" horiz-adv-x="1331" 
d="M1059 1853l-297 -327h-240l178 327h359zM1210 0h-1026v1434h996v-281h-709v-248h412v-278h-412v-346h739v-281z" />
    <glyph glyph-name="Ecircumflex" unicode="&#xca;" horiz-adv-x="1331" 
d="M1081 1526h-190l-205 153l-205 -153h-186l250 327h286zM1210 0h-1026v1434h996v-281h-709v-248h412v-278h-412v-346h739v-281z" />
    <glyph glyph-name="Edieresis" unicode="&#xcb;" horiz-adv-x="1331" 
d="M627 1684q0 -64 -48 -111q-47 -47 -111 -47t-113 47q-48 47 -48 111t47 112q47 47 113 47t113 -47q47 -48 47 -112zM910 1843q64 0 112 -47q48 -48 47 -112q0 -64 -47 -111t-112 -47q-64 0 -112 47t-48 111t48 112q48 47 112 47zM1210 0h-1026v1434h996v-281h-709v-248
h412v-278h-412v-346h739v-281z" />
    <glyph glyph-name="Igrave" unicode="&#xcc;" horiz-adv-x="696" 
d="M477 1526h-239l-297 327h358zM492 0h-287v1434h287v-1434z" />
    <glyph glyph-name="Iacute" unicode="&#xcd;" horiz-adv-x="696" 
d="M739 1853l-297 -327h-239l178 327h358zM492 0h-287v1434h287v-1434z" />
    <glyph glyph-name="Icircumflex" unicode="&#xce;" horiz-adv-x="696" 
d="M741 1505h-190l-205 154l-205 -154h-186l250 328h287zM492 0h-287v1434h287v-1434z" />
    <glyph glyph-name="Idieresis" unicode="&#xcf;" horiz-adv-x="696" 
d="M287 1674q0 -64 -48 -111q-47 -47 -111 -47t-113 47q-48 47 -48 111t47 112q47 47 113 47t113 -47q47 -48 47 -112zM570 1833q64 0 112 -47q48 -48 47 -112q0 -64 -47 -111t-112 -47q-64 0 -112 47t-48 111t48 112q48 47 112 47zM492 0h-287v1434h287v-1434z" />
    <glyph glyph-name="Eth" unicode="&#xd0;" horiz-adv-x="1478" 
d="M1081 726q0 214 -102 322t-326 107h-159v-289h192v-235h-192v-352h149q219 0 329 116q109 117 109 331zM1376 717q0 -421 -315 -609q-181 -108 -418 -108h-428v631h-133v235h133v568h449q330 0 521 -172t191 -545z" />
    <glyph glyph-name="Ntilde" unicode="&#xd1;" horiz-adv-x="1529" 
d="M1174 1815q0 -135 -65 -215t-171 -80q-61 0 -101 13t-109 52t-103 39q-53 0 -70 -98h-184q0 135 64 215q65 80 171 80q62 1 102 -13t108 -53t104 -39q53 0 69 99h185zM1063 1434h283v-1434h-256l-527 782q-82 127 -100 162l4 -313v-631h-283v1434h275l508 -758
q82 -127 100 -162l-4 313v607z" />
    <glyph glyph-name="Ograve" unicode="&#xd2;" horiz-adv-x="1472" 
d="M877 1526h-240l-297 327h358zM1073 715q0 215 -93 336t-247 121t-244 -120q-90 -118 -90 -333q-1 -215 93 -336t248 -121t243 119q90 119 90 334zM1368 719q0 -342 -175 -542t-459 -200t-456 198t-174 540q0 341 176 541t458 200q284 0 457 -198t173 -539z" />
    <glyph glyph-name="Oacute" unicode="&#xd3;" horiz-adv-x="1472" 
d="M1098 1853l-297 -327h-240l178 327h359zM1073 715q0 215 -93 336t-247 121t-244 -120q-90 -118 -90 -333q-1 -215 93 -336t248 -121t243 119q90 119 90 334zM1368 719q0 -342 -175 -542t-459 -200t-456 198t-174 540q0 341 176 541t458 200q284 0 457 -198t173 -539z" />
    <glyph glyph-name="Ocircumflex" unicode="&#xd4;" horiz-adv-x="1472" 
d="M1120 1516h-190l-205 153l-205 -153h-186l250 327h286zM1073 715q0 215 -93 336t-247 121t-244 -120q-90 -118 -90 -333q-1 -215 93 -336t248 -121t243 119q90 119 90 334zM1368 719q0 -342 -175 -542t-459 -200t-456 198t-174 540q0 341 176 541t458 200q284 0 457 -198
t173 -539z" />
    <glyph glyph-name="Otilde" unicode="&#xd5;" horiz-adv-x="1472" 
d="M1135 1815q0 -135 -65 -215t-171 -80q-61 0 -101 13t-109 52t-103 39q-53 0 -70 -98h-184q0 135 64 215q65 80 171 80q61 1 101 -13t110 -53q68 -39 103 -39q53 0 69 99h185zM1073 715q0 215 -93 336t-247 121t-244 -120q-90 -118 -90 -333q-1 -215 93 -336t248 -121
t243 119q90 119 90 334zM1368 719q0 -342 -175 -542t-459 -200t-456 198t-174 540q0 341 176 541t458 200q284 0 457 -198t173 -539z" />
    <glyph glyph-name="Odieresis" unicode="&#xd6;" horiz-adv-x="1472" 
d="M506 1843q66 0 113 -47q47 -48 47 -112t-48 -111t-112 -47q-63 0 -112 47q-48 47 -48 111t47 112q47 47 113 47zM949 1526q-65 0 -113 47t-48 111t48 112q48 47 113 47q63 0 111 -47q48 -48 48 -112t-47 -111t-112 -47zM1073 715q0 215 -93 336t-247 121t-244 -120
q-90 -118 -90 -333q-1 -215 93 -336t248 -121t243 119q90 119 90 334zM1368 719q0 -342 -175 -542t-459 -200t-456 198t-174 540q0 341 176 541t458 200q284 0 457 -198t173 -539z" />
    <glyph glyph-name="multiply" unicode="&#xd7;" 
d="M924 608v-254l98 39q45 14 68 -22q14 -25 -7 -58l-264 -344l-270 344q-18 33 -4 58q25 37 71 22l95 -39v254h-285l41 -94q14 -47 -25 -72q-23 -14 -55 4l-346 271l346 264q31 20 55 6q37 -20 25 -67l-41 -99h285v258l-95 -39q-45 -16 -71 23q-14 25 4 57l270 344
l264 -344q20 -34 2 -64t-63 -16l-98 39v-258h288l-41 99q-12 47 19 64t63 -3l344 -264l-344 -271q-35 -18 -57 -4q-37 23 -25 74l41 92h-288z" />
    <glyph glyph-name="Oslash" unicode="&#xd8;" horiz-adv-x="1472" 
d="M1069 704q0 198 -61 314l-369 -758q43 -12 92 -12q170 0 254 129t84 327zM731 1186q-170 0 -254 -129t-84 -321t56 -310l366 750q-45 10 -84 10zM1354 731q0 -346 -167 -550t-456 -204q-106 0 -211 39l-57 -118h-270l124 254q-209 213 -209 555q0 341 168 545
q166 204 455 204q109 0 203 -37l57 117h271l-121 -250q213 -209 213 -555z" />
    <glyph glyph-name="Ugrave" unicode="&#xd9;" horiz-adv-x="1509" 
d="M907 1495h-239l-297 328h358zM1335 633q1 -311 -153 -483t-423 -172t-427 172t-158 479v805h287v-801q0 -171 79 -273t215 -102t215 99t79 272v805h286v-801z" />
    <glyph glyph-name="Uacute" unicode="&#xda;" horiz-adv-x="1509" 
d="M1128 1823l-297 -328h-239l178 328h358zM1335 633q1 -311 -153 -483t-423 -172t-427 172t-158 479v805h287v-801q0 -171 79 -273t215 -102t215 99t79 272v805h286v-801z" />
    <glyph glyph-name="Ucircumflex" unicode="&#xdb;" horiz-adv-x="1509" 
d="M1151 1526h-190l-205 153l-205 -153h-186l249 327h287zM1335 633q1 -311 -153 -483t-423 -172t-427 172t-158 479v805h287v-801q0 -171 79 -273t215 -102t215 99t79 272v805h286v-801z" />
    <glyph glyph-name="Udieresis" unicode="&#xdc;" horiz-adv-x="1509" 
d="M535 1843q67 0 113 -47q46 -48 46 -112t-48 -111t-111 -47t-112 47q-48 47 -48 111t47 112q47 47 113 47zM978 1843q64 0 112 -47q48 -48 47 -112q0 -64 -47 -111t-112 -47t-113 47t-48 111t48 112q49 47 113 47zM1335 633q1 -311 -153 -483t-423 -172t-427 172t-158 479
v805h287v-801q0 -171 79 -273t215 -102t215 99t79 272v805h286v-801z" />
    <glyph glyph-name="Yacute" unicode="&#xdd;" horiz-adv-x="1462" 
d="M1104 1833l-297 -328h-240l178 328h359zM874 0h-286v561l-543 873h330l203 -340q96 -162 155 -281q55 113 156 281l203 340h325l-543 -867v-567z" />
    <glyph glyph-name="Thorn" unicode="&#xde;" horiz-adv-x="1392" 
d="M1010 750q0 184 -209 184h-330v-369h334q205 1 205 185zM811 1212q215 0 355 -118t139 -346q1 -228 -141 -345t-378 -116h-315v-287h-287v1434h287v-222h340z" />
    <glyph glyph-name="germandbls" unicode="&#xdf;" horiz-adv-x="1200" 
d="M1118 453q0 -453 -497 -453h-46v256h37q219 0 219 197q0 229 -243 229h-13v246h11q63 0 99 40t36 108t-38 106q-38 39 -119 39q-80 0 -112 -41t-32 -127v-1307l-283 -141v1462q0 420 434 420q189 -1 313 -101t124 -278q0 -219 -191 -285q131 -27 216 -117t85 -253z" />
    <glyph glyph-name="agrave" unicode="&#xe0;" horiz-adv-x="1138" 
d="M719 1219h-240l-297 327h359zM532 496q-164 0 -163 -136q0 -63 40 -103q41 -40 115 -40q74 1 127 29t78 69v136q-72 45 -197 45zM1012 0h-283v72q-90 -94 -248 -94q-159 0 -277 98q-118 100 -118 278t122 270t314 93q121 0 207 -43v53q0 59 -40 98t-124 39t-146 -15
t-138 -56l-109 196q188 109 395 109t326 -100t119 -277v-721z" />
    <glyph glyph-name="aacute" unicode="&#xe1;" horiz-adv-x="1138" 
d="M940 1546l-297 -327h-240l179 327h358zM532 496q-164 0 -163 -136q0 -63 40 -103q41 -40 115 -40q74 1 127 29t78 69v136q-72 45 -197 45zM1012 0h-283v72q-90 -94 -248 -94q-159 0 -277 98q-118 100 -118 278t122 270t314 93q121 0 207 -43v53q0 59 -40 98t-124 39
t-146 -15t-138 -56l-109 196q188 109 395 109t326 -100t119 -277v-721z" />
    <glyph glyph-name="acircumflex" unicode="&#xe2;" horiz-adv-x="1138" 
d="M963 1208h-191l-205 154l-205 -154h-186l250 328h287zM532 496q-164 0 -163 -136q0 -63 40 -103q41 -40 115 -40q74 1 127 29t78 69v136q-72 45 -197 45zM1012 0h-283v72q-90 -94 -248 -94q-159 0 -277 98q-118 100 -118 278t122 270t314 93q121 0 207 -43v53
q0 59 -40 98t-124 39t-146 -15t-138 -56l-109 196q188 109 395 109t326 -100t119 -277v-721z" />
    <glyph glyph-name="atilde" unicode="&#xe3;" horiz-adv-x="1138" 
d="M977 1507q0 -135 -65 -215t-171 -80q-61 0 -101 14t-108 52q-68 39 -104 39q-53 0 -70 -98h-184q0 135 65 215t171 79q61 0 101 -13q41 -13 109 -52t103 -39q53 0 70 98h184zM532 496q-164 0 -163 -136q0 -63 40 -103q41 -40 115 -40q74 1 127 29t78 69v136
q-72 45 -197 45zM1012 0h-283v72q-90 -94 -248 -94q-159 0 -277 98q-118 100 -118 278t122 270t314 93q121 0 207 -43v53q0 59 -40 98t-124 39t-146 -15t-138 -56l-109 196q188 109 395 109t326 -100t119 -277v-721z" />
    <glyph glyph-name="adieresis" unicode="&#xe4;" horiz-adv-x="1138" 
d="M508 1368q0 -64 -48 -112t-112 -48t-111 47q-49 47 -49 112t48 112t112 47q66 0 113 -47t47 -111zM950 1368q0 -64 -47 -112t-111 -48t-113 47q-48 47 -48 112t48 112q49 47 113 47t111 -47t47 -111zM532 496q-164 0 -163 -136q0 -63 40 -103q41 -40 115 -40q74 1 127 29
t78 69v136q-72 45 -197 45zM1012 0h-283v72q-90 -94 -248 -94q-159 0 -277 98q-118 100 -118 278t122 270t314 93q121 0 207 -43v53q0 59 -40 98t-124 39t-146 -15t-138 -56l-109 196q188 109 395 109t326 -100t119 -277v-721z" />
    <glyph glyph-name="aring" unicode="&#xe5;" horiz-adv-x="1138" 
d="M690 1491q0 51 -35 87t-86 36t-86 -36t-35 -87t36 -87q34 -36 85 -36t86 36t35 87zM846 1491q0 -119 -79 -196t-198 -77t-197 78q-78 76 -79 195q0 119 79 198q80 79 198 79t197 -80q79 -78 79 -197zM532 496q-164 0 -163 -136q0 -63 40 -103q41 -40 115 -40q74 1 127 29
t78 69v136q-72 45 -197 45zM1012 0h-283v72q-90 -94 -248 -94q-159 0 -277 98q-118 100 -118 278t122 270t314 93q121 0 207 -43v53q0 59 -40 98t-124 39t-146 -15t-138 -56l-109 196q188 109 395 109t326 -100t119 -277v-721z" />
    <glyph glyph-name="ae" unicode="&#xe6;" horiz-adv-x="1726" 
d="M532 496q-164 0 -163 -136q0 -63 40 -103q41 -40 115 -40q74 1 127 29t78 69v136q-72 45 -197 45zM1178 852q-82 0 -128 -54t-55 -139h369q-6 81 -55 137t-131 56zM1638 537q0 -49 -4 -91h-643q6 -102 71 -152t167 -50t168 75l200 -167q-63 -82 -169 -128t-216 -47
q-240 0 -376 164q-145 -164 -349 -164q-165 -1 -283 99t-118 278t122 270t314 93q121 0 207 -43v53q0 59 -40 98t-124 39t-146 -15t-138 -56l-109 196q188 109 401 109t326 -125q115 125 287 125q208 0 330 -160t122 -401z" />
    <glyph glyph-name="ccedilla" unicode="&#xe7;" horiz-adv-x="1099" 
d="M696 -72q60 0 105 -37t45 -117t-66 -125q-66 -44 -197 -44t-249 73l43 78q93 -49 193 -49t100 70q0 53 -64 53q-33 0 -61 -14l-74 28l33 140q-184 30 -303 182t-119 384t145 390t371 158q270 0 426 -238l-186 -188q-54 76 -110 114t-147 39q-91 0 -151 -79
q-60 -78 -61 -208q0 -130 61 -209t162 -79q139 0 254 137l180 -170q-82 -111 -176 -172t-229 -68l-15 -63q30 14 90 14z" />
    <glyph glyph-name="egrave" unicode="&#xe8;" horiz-adv-x="1101" 
d="M709 1219h-240l-297 327h358zM554 852q-81 0 -128 -54t-55 -139h368q-6 81 -55 137t-130 56zM1014 537q0 -49 -4 -91h-643q7 -102 71 -152t166 -50t168 75l201 -167q-63 -82 -169 -128t-216 -47q-231 0 -369 152q-137 152 -137 403q0 250 136 408t344 158t330 -160
t122 -401z" />
    <glyph glyph-name="eacute" unicode="&#xe9;" horiz-adv-x="1101" 
d="M930 1546l-297 -327h-240l178 327h359zM554 852q-81 0 -128 -54t-55 -139h368q-6 81 -55 137t-130 56zM1014 537q0 -49 -4 -91h-643q7 -102 71 -152t166 -50t168 75l201 -167q-63 -82 -169 -128t-216 -47q-231 0 -369 152q-137 152 -137 403q0 250 136 408t344 158
t330 -160t122 -401z" />
    <glyph glyph-name="ecircumflex" unicode="&#xea;" horiz-adv-x="1101" 
d="M952 1198h-190l-205 154l-205 -154h-186l250 328h286zM554 852q-81 0 -128 -54t-55 -139h368q-6 81 -55 137t-130 56zM1014 537q0 -49 -4 -91h-643q7 -102 71 -152t166 -50t168 75l201 -167q-63 -82 -169 -128t-216 -47q-231 0 -369 152q-137 152 -137 403q0 250 136 408
t344 158t330 -160t122 -401z" />
    <glyph glyph-name="edieresis" unicode="&#xeb;" horiz-adv-x="1101" 
d="M498 1368q0 -64 -48 -112t-112 -48t-112 47t-48 112t47 112t113 47t113 -47t47 -111zM781 1526q63 0 111 -47t48 -111t-47 -112t-112 -48t-113 47t-47 112q0 65 48 112t112 47zM554 852q-81 0 -128 -54t-55 -139h368q-6 81 -55 137t-130 56zM1014 537q0 -49 -4 -91h-643
q7 -102 71 -152t166 -50t168 75l201 -167q-63 -82 -169 -128t-216 -47q-231 0 -369 152q-137 152 -137 403q0 250 136 408t344 158t330 -160t122 -401z" />
    <glyph glyph-name="igrave" unicode="&#xec;" horiz-adv-x="577" 
d="M422 1219h-240l-297 327h359zM430 0h-283v1075h283v-1075z" />
    <glyph glyph-name="iacute" unicode="&#xed;" horiz-adv-x="577" 
d="M690 1546l-297 -327h-239l178 327h358zM430 0h-283v1075h283v-1075z" />
    <glyph glyph-name="icircumflex" unicode="&#xee;" horiz-adv-x="577" 
d="M682 1188h-190l-205 153l-205 -153h-186l249 328h287zM430 0h-283v1075h283v-1075z" />
    <glyph glyph-name="idieresis" unicode="&#xef;" horiz-adv-x="577" 
d="M-92 1357q0 65 47 111t113 48q66 0 112 -47t47 -111q0 -64 -48 -112t-111 -48t-112 47q-48 47 -48 112zM350 1357q0 65 48 111t112 48q64 0 112 -47t48 -111t-47 -112t-112 -48t-113 47t-48 112zM430 0h-283v1075h283v-1075z" />
    <glyph glyph-name="eth" unicode="&#xf0;" horiz-adv-x="1136" 
d="M778 478q0 110 -54 180t-156 69q-102 0 -156 -69q-54 -70 -54 -184t54 -180t154 -67q101 0 157 71q55 70 55 180zM1055 578q0 -295 -133 -448q-132 -153 -350 -153q-218 1 -354 139t-136 358t130 360t314 141q141 0 254 -78q-29 133 -133 227l-96 -94l-131 117l74 72
q-92 37 -179 43v194q190 -6 336 -82l84 82l131 -117l-69 -67q258 -237 258 -694z" />
    <glyph glyph-name="ntilde" unicode="&#xf1;" horiz-adv-x="1196" 
d="M1001 1507q-1 -135 -65 -215t-170 -80q-61 0 -101 14t-109 52q-69 39 -103 39q-53 0 -70 -98h-184q0 135 64 215q65 80 171 79q62 0 102 -13t108 -52t104 -39q53 0 69 98h184zM1069 0h-283v582q0 139 -45 194t-137 55t-138 -55t-46 -188v-588h-283v1075h283v-71
q90 94 252 94q201 0 299 -129t98 -363v-606z" />
    <glyph glyph-name="ograve" unicode="&#xf2;" horiz-adv-x="1136" 
d="M717 1219h-240l-297 327h359zM768 541q0 125 -51 205t-149 79q-98 0 -149 -79q-50 -78 -50 -208t50 -209t147 -79t150 83q52 83 52 208zM1055 537q-1 -246 -139 -403t-349 -157t-348 157t-137 403q0 245 137 403t348 158t349 -158t139 -403z" />
    <glyph glyph-name="oacute" unicode="&#xf3;" horiz-adv-x="1136" 
d="M938 1546l-297 -327h-240l179 327h358zM768 541q0 125 -51 205t-149 79q-98 0 -149 -79q-50 -78 -50 -208t50 -209t147 -79t150 83q52 83 52 208zM1055 537q-1 -246 -139 -403t-349 -157t-348 157t-137 403q0 245 137 403t348 158t349 -158t139 -403z" />
    <glyph glyph-name="ocircumflex" unicode="&#xf4;" horiz-adv-x="1136" 
d="M961 1198h-191l-205 154l-205 -154h-186l250 328h287zM768 541q0 125 -51 205t-149 79q-98 0 -149 -79q-50 -78 -50 -208t50 -209t147 -79t150 83q52 83 52 208zM1055 537q-1 -246 -139 -403t-349 -157t-348 157t-137 403q0 245 137 403t348 158t349 -158t139 -403z" />
    <glyph glyph-name="otilde" unicode="&#xf5;" horiz-adv-x="1136" 
d="M967 1507q0 -135 -65 -215t-171 -80q-61 0 -101 14t-109 52q-69 39 -103 39q-53 0 -70 -98h-184q0 135 64 215q65 80 171 79q61 0 101 -13t110 -52q68 -39 103 -39q53 0 69 98h185zM768 541q0 125 -51 205t-149 79q-98 0 -149 -79q-50 -78 -50 -208t50 -209t147 -79
t150 83q52 83 52 208zM1055 537q-1 -246 -139 -403t-349 -157t-348 157t-137 403q0 245 137 403t348 158t349 -158t139 -403z" />
    <glyph glyph-name="odieresis" unicode="&#xf6;" horiz-adv-x="1136" 
d="M186 1357q0 65 47 111t113 48q66 0 113 -47t47 -111t-48 -112t-112 -48t-112 47t-48 112zM629 1357q0 65 48 111q49 46 113 48q64 0 111 -47t47 -111t-47 -112t-111 -48t-113 47q-48 47 -48 112zM768 541q0 125 -51 205t-149 79q-98 0 -149 -79q-50 -78 -50 -208t50 -209
t147 -79t150 83q52 83 52 208zM1055 537q-1 -246 -139 -403t-349 -157t-348 157t-137 403q0 245 137 403t348 158t349 -158t139 -403z" />
    <glyph glyph-name="divide" unicode="&#xf7;" 
d="M924 608v-254l98 39q45 14 68 -22q14 -25 -7 -58l-264 -344l-270 344q-18 33 -4 58q25 37 71 22l95 -39v254h-285l41 -94q14 -47 -25 -72q-23 -14 -55 4l-346 271l346 264q31 20 55 6q37 -20 25 -67l-41 -99h285v258l-95 -39q-45 -16 -71 23q-14 25 4 57l270 344
l264 -344q20 -34 2 -64t-63 -16l-98 39v-258h288l-41 99q-12 47 19 64t63 -3l344 -264l-344 -271q-35 -18 -57 -4q-37 23 -25 74l41 92h-288z" />
    <glyph glyph-name="oslash" unicode="&#xf8;" horiz-adv-x="1136" 
d="M788 516q0 112 -24 184l-254 -481q25 -8 57 -8q106 0 164 96q57 97 57 209zM567 864q-107 0 -163 -91t-56 -207t21 -185l252 477q-25 6 -54 6zM1055 541q-1 -250 -139 -407t-349 -157q-76 0 -159 27l-56 -106h-252l123 231q-141 158 -141 406q0 247 137 405t348 158
q84 0 156 -27l55 107h252l-121 -230q146 -157 146 -407z" />
    <glyph glyph-name="ugrave" unicode="&#xf9;" horiz-adv-x="1196" 
d="M743 1219h-239l-297 327h358zM1059 0h-283v72q-90 -94 -252 -95q-201 0 -299 129t-98 363v606h283v-581q0 -138 45 -194t137 -56t138 55t46 188v588h283v-1075z" />
    <glyph glyph-name="uacute" unicode="&#xfa;" horiz-adv-x="1196" 
d="M965 1546l-297 -327h-240l178 327h359zM1059 0h-283v72q-90 -94 -252 -95q-201 0 -299 129t-98 363v606h283v-581q0 -138 45 -194t137 -56t138 55t46 188v588h283v-1075z" />
    <glyph glyph-name="ucircumflex" unicode="&#xfb;" horiz-adv-x="1196" 
d="M987 1219h-190l-205 153l-205 -153h-186l250 327h286zM1059 0h-283v72q-90 -94 -252 -95q-201 0 -299 129t-98 363v606h283v-581q0 -138 45 -194t137 -56t138 55t46 188v588h283v-1075z" />
    <glyph glyph-name="udieresis" unicode="&#xfc;" horiz-adv-x="1196" 
d="M373 1536q67 0 113 -47t46 -111t-48 -112q-48 -47 -111 -47t-112 47q-48 48 -48 112t47 111t113 47zM816 1536q64 0 112 -47t47 -111q0 -64 -47 -112q-47 -47 -112 -47t-113 47q-48 48 -48 112t48 111q49 47 113 47zM1059 0h-283v72q-90 -94 -252 -95q-201 0 -299 129
t-98 363v606h283v-581q0 -138 45 -194t137 -56t138 55t46 188v588h283v-1075z" />
    <glyph glyph-name="yacute" unicode="&#xfd;" horiz-adv-x="1208" 
d="M973 1526l-297 -328h-240l178 328h359zM1157 1075l-553 -1454h-278l143 379l-418 1075h311l177 -518q41 -119 69 -235q23 98 70 235l176 518h303z" />
    <glyph glyph-name="thorn" unicode="&#xfe;" horiz-adv-x="1150" 
d="M778 518q0 313 -184 313q-104 0 -174 -90v-405q68 -92 190 -92q168 0 168 274zM647 1098q184 0 301 -144t117 -410t-111 -416t-307 -151q-135 0 -227 84v-315l-283 -141v1747l283 141v-485q102 90 227 90z" />
    <glyph glyph-name="ydieresis" unicode="&#xff;" horiz-adv-x="1208" 
d="M221 1357q0 65 47 111t113 48q66 0 113 -47t47 -111t-48 -112q-47 -48 -111 -48t-113 47q-48 47 -48 112zM983 1358q0 -64 -47 -112t-112 -48q-64 0 -112 47t-48 112t48 111t112 48q64 0 112 -47t47 -111zM1157 1075l-553 -1454h-278l143 379l-418 1075h311l177 -518
q41 -119 69 -235q23 98 70 235l176 518h303z" />
    <glyph glyph-name="dotlessi" unicode="&#x131;" horiz-adv-x="577" 
d="M430 0h-283v1075h283v-1075z" />
    <glyph glyph-name="Lslash" unicode="&#x141;" horiz-adv-x="1300" 
d="M1221 0h-1006v483l-133 -102v276l133 103v674h283v-498l237 176v-276l-237 -177v-376h723v-283z" />
    <glyph glyph-name="lslash" unicode="&#x142;" horiz-adv-x="659" 
d="M469 0h-279v489l-118 -81v276l118 82v586l279 141v-578l119 84v-276l-119 -82v-641z" />
    <glyph glyph-name="OE" unicode="&#x152;" horiz-adv-x="2160" 
d="M1059 717q0 205 -81 330t-247 125t-247 -126q-81 -124 -81 -329t81 -330t247 -125t247 125t81 330zM2040 0h-965v129q-113 -152 -344 -152q-289 0 -456 204t-166 536q1 331 167 535t455 204q227 0 344 -151v129h934v-281h-688v-248h391v-278h-391v-346h719v-281z" />
    <glyph glyph-name="oe" unicode="&#x153;" horiz-adv-x="1761" 
d="M768 541q0 125 -51 205t-149 79q-98 0 -149 -79q-50 -78 -50 -208t50 -209t147 -79t150 83q52 83 52 208zM1213 852q-81 0 -128 -54t-55 -139h369q-5 81 -55 137t-131 56zM1673 537q0 -49 -4 -91h-643q6 -102 71 -152t167 -50t168 75l200 -167q-62 -82 -168 -128
t-217 -47q-229 0 -352 154q-103 -154 -321 -154t-355 157t-137 403q0 245 137 403t353 158t325 -158q127 158 330 158t325 -160t121 -401z" />
    <glyph glyph-name="Scaron" unicode="&#x160;" horiz-adv-x="1353" 
d="M1071 1864l-250 -328h-286l-250 328h190l205 -154l205 154h186zM1235 434q0 -213 -140 -335t-423 -122q-178 0 -326 70t-231 191l207 184q141 -164 366 -164q129 0 190 37q60 37 60 114t-61 115t-215 75q-154 36 -228 64q-182 70 -233 197q-31 74 -31 176q0 190 146 305
t366 115q307 0 522 -225l-207 -201q-143 147 -325 148q-106 0 -156 -38t-49 -98q0 -60 56 -92q55 -33 185 -62q130 -28 186 -46t127 -54t113 -80q42 -42 72 -113t29 -161z" />
    <glyph glyph-name="scaron" unicode="&#x161;" horiz-adv-x="1099" 
d="M928 1546l-250 -327h-287l-250 327h191l205 -153l204 153h187zM987 313q0 -174 -121 -255t-317 -81q-262 0 -451 125l95 215q178 -98 372 -98q80 -1 112 19t32 60t-34 62t-124 50q-275 83 -350 163q-74 80 -74 205q0 162 116 241q115 79 319 79t392 -105l-90 -223
q-160 86 -313 86q-82 0 -114 -16q-31 -16 -31 -52t40 -60q40 -22 154 -58q115 -36 168 -61q149 -68 193 -160q26 -58 26 -136z" />
    <glyph glyph-name="Ydieresis" unicode="&#x178;" horiz-adv-x="1462" 
d="M672 1664q0 -64 -48 -112t-112 -47q-64 0 -112 47t-48 112t47 112t113 47t113 -47q47 -48 47 -112zM955 1823q63 0 111 -47q48 -48 48 -112t-47 -112t-112 -47q-65 0 -113 47t-47 112q0 65 48 112t112 47zM874 0h-286v561l-543 873h330l203 -340q96 -162 155 -281
q55 113 156 281l203 340h325l-543 -867v-567z" />
    <glyph glyph-name="Zcaron" unicode="&#x17d;" horiz-adv-x="1409" 
d="M1094 1853l-250 -327h-287l-250 327h191l204 -153l205 153h187zM1270 0h-1131v254l617 735q98 121 164 187q-115 -4 -291 -5h-449v263h1080v-254l-611 -736q-98 -121 -164 -186q115 4 291 4h494v-262z" />
    <glyph glyph-name="zcaron" unicode="&#x17e;" horiz-adv-x="1134" 
d="M975 1546l-250 -327h-287l-250 327h191l205 -153l204 153h187zM1012 0h-889v205l391 465q33 42 80 92q47 51 55 61q-78 -4 -176 -4h-315v256h854v-205l-379 -464q-14 -18 -133 -154q78 4 176 4h336v-256z" />
    <glyph glyph-name="florin" unicode="&#x192;" horiz-adv-x="854" 
d="M625 1227q-57 1 -79 -19t-22 -67v-66h183v-260h-183v-1069l-282 -141v1210h-129v260h129v99q0 283 307 282q104 0 178 -31v-221q-45 23 -102 23z" />
    <glyph glyph-name="circumflex" unicode="&#x2c6;" horiz-adv-x="1024" 
d="M905 1219h-190l-205 153l-205 -153h-186l250 327h286z" />
    <glyph glyph-name="caron" unicode="&#x2c7;" horiz-adv-x="1024" 
d="M905 1546l-250 -327h-286l-250 327h190l205 -153l205 153h186z" />
    <glyph glyph-name="breve" unicode="&#x2d8;" horiz-adv-x="1024" 
d="M509 1219q-161 0 -259 86t-121 241h172q39 -133 213 -133q94 0 144 32t71 101h166q-21 -156 -123 -242t-263 -85z" />
    <glyph glyph-name="dotaccent" unicode="&#x2d9;" horiz-adv-x="1024" 
d="M510 1536q64 0 112 -47t48 -111t-47 -112q-47 -47 -112 -47t-113 47q-48 48 -48 112t48 111t112 47z" />
    <glyph glyph-name="ring" unicode="&#x2da;" horiz-adv-x="1024" 
d="M633 1491q0 51 -35 87t-86 36t-86 -36t-35 -87t35 -87t86 -36t86 36t35 87zM788 1491q0 -119 -78 -196t-198 -77q-119 0 -198 78q-79 76 -78 195q0 119 78 198q79 79 198 79t198 -79q78 -79 78 -198z" />
    <glyph glyph-name="ogonek" unicode="&#x2db;" horiz-adv-x="1024" 
d="M518 -395q-205 0 -205 170q0 121 156 225h123q-64 -72 -84 -114t-20 -80t20 -55t51 -17q76 0 164 49l53 -82q-127 -96 -258 -96z" />
    <glyph glyph-name="tilde" unicode="&#x2dc;" horiz-adv-x="1024" 
d="M920 1507q0 -135 -65 -215t-171 -80q-61 0 -101 14t-109 52q-69 39 -103 39q-53 0 -70 -98h-184q0 135 64 215q65 80 171 79q62 0 102 -13t108 -52t104 -39q53 0 69 98h185z" />
    <glyph glyph-name="hungarumlaut" unicode="&#x2dd;" horiz-adv-x="1024" 
d="M602 1546l-297 -327h-239l178 327h358zM1053 1546l-297 -327h-240l178 327h359z" />
    <glyph glyph-name="Delta" unicode="&#x394;" horiz-adv-x="1331" 
d="M1239 575h-711l29 -100q16 -53 -27 -82q-33 -25 -73 6l-416 308l416 313q43 27 79 0t21 -82l-29 -96h711v-267z" />
    <glyph glyph-name="Delta" unicode="&#x2206;" horiz-adv-x="1331" 
d="M1239 575h-711l29 -100q16 -53 -27 -82q-33 -25 -73 6l-416 308l416 313q43 27 79 0t21 -82l-29 -96h711v-267z" />
    <glyph glyph-name="Omega" unicode="&#x3a9;" horiz-adv-x="901" 
d="M584 0h-267v977l-100 -29q-53 -16 -82 27q-25 33 6 74l308 415l313 -415q27 -43 0 -80t-82 -21l-96 29v-977z" />
    <glyph glyph-name="Omega" unicode="&#x2126;" horiz-adv-x="901" 
d="M584 0h-267v977l-100 -29q-53 -16 -82 27q-25 33 6 74l308 415l313 -415q27 -43 0 -80t-82 -21l-96 29v-977z" />
    <glyph glyph-name="pi" unicode="&#x3c0;" horiz-adv-x="1712" 
d="M1049 862q0 102 -115 103h-170v-211h170q115 -1 115 108zM946 1120q121 0 199 -66t78 -195t-80 -193t-211 -64h-168v-289h-170v807h352zM1464 717q0 260 -174 434t-434 174t-434 -174t-174 -434t174 -434t434 -174t434 174t174 434zM1595 717q0 -315 -212 -527t-527 -213
q-315 0 -527 212q-212 211 -212 527t212 528t527 212t527 -212t212 -527z" />
    <glyph glyph-name="endash" unicode="&#x2013;" horiz-adv-x="942" 
d="M829 612h-716v262h716v-262z" />
    <glyph glyph-name="emdash" unicode="&#x2014;" horiz-adv-x="1269" 
d="M1157 612h-1044v262h1044v-262z" />
    <glyph glyph-name="quoteleft" unicode="&#x2018;" horiz-adv-x="575" 
d="M451 1434l-29 -576h-334l168 576h195z" />
    <glyph glyph-name="quoteright" unicode="&#x2019;" horiz-adv-x="575" 
d="M487 1434l-168 -576h-194l29 576h333z" />
    <glyph glyph-name="quotesinglbase" unicode="&#x201a;" horiz-adv-x="575" 
d="M487 346l-168 -575h-194l29 575h333z" />
    <glyph glyph-name="quotedblleft" unicode="&#x201c;" horiz-adv-x="1110" 
d="M451 1434l-29 -576h-334l168 576h195zM985 1434l-29 -576h-333l168 576h194z" />
    <glyph glyph-name="quotedblright" unicode="&#x201d;" horiz-adv-x="1110" 
d="M487 1434l-168 -576h-194l29 576h333zM1022 1434l-168 -576h-195l29 576h334z" />
    <glyph glyph-name="quotedblbase" unicode="&#x201e;" horiz-adv-x="1110" 
d="M487 346l-168 -575h-194l29 575h333zM1022 346l-168 -575h-195l29 575h334z" />
    <glyph glyph-name="dagger" unicode="&#x2020;" horiz-adv-x="1216" 
d="M1104 750h-356v-955h-279v955h-356v256h356v428h279v-428h356v-256z" />
    <glyph glyph-name="daggerdbl" unicode="&#x2021;" horiz-adv-x="1216" 
d="M1104 223h-361v-428h-270v428h-360v252h360v279h-360v252h360v428h270v-428h361v-252h-361v-279h361v-252z" />
    <glyph glyph-name="bullet" unicode="&#x2022;" horiz-adv-x="1003" 
d="M870 750q0 -156 -106 -262t-262 -107q-156 0 -262 106q-106 107 -106 263t106 264t262 108t262 -108t106 -264z" />
    <glyph glyph-name="ellipsis" unicode="&#x2026;" horiz-adv-x="1671" 
d="M471 170q0 -78 -57 -135t-135 -57q-77 0 -135 56q-58 58 -58 136t57 135t135 57t136 -57q57 -57 57 -135zM1028 170q0 -78 -57 -135t-135 -57t-136 56q-58 58 -57 136q0 78 57 135q58 57 136 57t135 -57t57 -135zM1585 170q0 -78 -57 -135t-135 -57q-77 0 -135 56
q-58 58 -58 136t57 135t135 57t136 -57q57 -57 57 -135z" />
    <glyph glyph-name="perthousand" unicode="&#x2030;" horiz-adv-x="2897" 
d="M1739 420q-1 258 -149 258t-148 -256t149 -256q72 0 110 68t38 186zM2607 420q0 258 -148 258q-149 0 -149 -256t150 -256q72 0 110 68t37 186zM604 1008q0 258 -148 258t-148 -256t149 -256q71 0 109 68t38 186zM1968 425q0 -202 -108 -325t-273 -123q-166 0 -270 120
q-105 120 -105 324q0 203 104 325t276 122q171 0 274 -120q102 -121 102 -323zM2081 421q0 203 104 325q103 122 275 122t274 -120t102 -323q0 -202 -108 -325t-272 -123q-166 0 -271 120q-104 120 -104 324zM1585 1434l-878 -1434h-248l878 1434h248zM78 1009
q0 203 104 325t276 122t274 -120t102 -323q0 -202 -108 -325t-274 -123t-270 120t-104 324z" />
    <glyph glyph-name="guilsinglleft" unicode="&#x2039;" horiz-adv-x="770" 
d="M688 0h-293l-334 537l334 538h293l-323 -536z" />
    <glyph glyph-name="guilsinglright" unicode="&#x203a;" horiz-adv-x="770" 
d="M709 539l-334 -539h-293l324 537l-324 538h293z" />
    <glyph glyph-name="fraction" unicode="&#x2044;" horiz-adv-x="1009" 
d="M1137 1434l-961 -1434h-303l961 1434h303z" />
    <glyph glyph-name="fraction" unicode="&#x2215;" horiz-adv-x="1009" 
d="M1137 1434l-961 -1434h-303l961 1434h303z" />
    <glyph glyph-name="Euro" unicode="&#x20ac;" horiz-adv-x="1306" 
d="M831 963v-189h-446q-2 -18 -2 -58t2 -59h446v-188h-415q76 -221 291 -221q98 0 160 46t130 152l234 -139q-90 -153 -213 -241t-316 -89q-284 0 -442 202t-158 542q0 339 165 537t440 198q203 0 315 -87t192 -275l-241 -117q-55 113 -113 161t-158 48q-214 0 -286 -223
h415z" />
    <glyph glyph-name="trademark" unicode="&#x2122;" horiz-adv-x="1699" 
d="M1616 627h-182v399q0 14 2 45t2 45q-12 -28 -37 -78l-211 -436l-207 436q-4 8 -35 76q4 -57 4 -88v-399h-182v807h193l174 -349q47 -90 57 -133q12 45 57 133l170 349h195v-807zM635 1266h-201v-639h-194v639h-201v168h596v-168z" />
    <glyph glyph-name="partialdiff" unicode="&#x2202;" horiz-adv-x="901" 
d="M680 485q55 17 82 -20t0 -80l-313 -416l-308 416q-31 41 -6 74q29 43 82 26l100 -28v520l-100 -29q-53 -16 -82 27q-25 33 6 74l308 415l313 -415q27 -43 0 -80t-82 -21l-96 29v-520z" />
    <glyph glyph-name="product" unicode="&#x220f;" 
d="M924 608v-254l98 39q45 14 68 -22q14 -25 -7 -58l-264 -344l-270 344q-18 33 -4 58q25 37 71 22l95 -39v254h-285l41 -94q14 -47 -25 -72q-23 -14 -55 4l-346 271l346 264q31 20 55 6q37 -20 25 -67l-41 -99h285v258l-95 -39q-45 -16 -71 23q-14 25 4 57l270 344
l264 -344q20 -34 2 -64t-63 -16l-98 39v-258h288l-41 99q-12 47 19 64t63 -3l344 -264l-344 -271q-35 -18 -57 -4q-37 23 -25 74l41 92h-288z" />
    <glyph glyph-name="summation" unicode="&#x2211;" 
d="M924 608v-254l98 39q45 14 68 -22q14 -25 -7 -58l-264 -344l-270 344q-18 33 -4 58q25 37 71 22l95 -39v254h-285l41 -94q14 -47 -25 -72q-23 -14 -55 4l-346 271l346 264q31 20 55 6q37 -20 25 -67l-41 -99h285v258l-95 -39q-45 -16 -71 23q-14 25 4 57l270 344
l264 -344q20 -34 2 -64t-63 -16l-98 39v-258h288l-41 99q-12 47 19 64t63 -3l344 -264l-344 -271q-35 -18 -57 -4q-37 23 -25 74l41 92h-288z" />
    <glyph glyph-name="minus" unicode="&#x2212;" 
d="M924 608v-254l98 39q45 14 68 -22q14 -25 -7 -58l-264 -344l-270 344q-18 33 -4 58q25 37 71 22l95 -39v254h-285l41 -94q14 -47 -25 -72q-23 -14 -55 4l-346 271l346 264q31 20 55 6q37 -20 25 -67l-41 -99h285v258l-95 -39q-45 -16 -71 23q-14 25 4 57l270 344
l264 -344q20 -34 2 -64t-63 -16l-98 39v-258h288l-41 99q-12 47 19 64t63 -3l344 -264l-344 -271q-35 -18 -57 -4q-37 23 -25 74l41 92h-288z" />
    <glyph glyph-name="radical" unicode="&#x221a;" horiz-adv-x="1386" 
d="M1313 1434l-576 -1434h-305l-354 696h305l82 -166q74 -154 119 -264q10 31 98 273l334 895h297z" />
    <glyph glyph-name="infinity" unicode="&#x221e;" 
d="M924 608v-254l98 39q45 14 68 -22q14 -25 -7 -58l-264 -344l-270 344q-18 33 -4 58q25 37 71 22l95 -39v254h-285l41 -94q14 -47 -25 -72q-23 -14 -55 4l-346 271l346 264q31 20 55 6q37 -20 25 -67l-41 -99h285v258l-95 -39q-45 -16 -71 23q-14 25 4 57l270 344
l264 -344q20 -34 2 -64t-63 -16l-98 39v-258h288l-41 99q-12 47 19 64t63 -3l344 -264l-344 -271q-35 -18 -57 -4q-37 23 -25 74l41 92h-288z" />
    <glyph glyph-name="integral" unicode="&#x222b;" horiz-adv-x="1150" 
d="M537 831q-168 0 -168 -274q0 -313 184 -313q104 0 174 90v405q-68 92 -190 92zM1010 0h-283v68q-86 -90 -227 -91q-184 -1 -301 143t-117 410t111 418q111 150 307 150q135 0 227 -84v61h283v-1075z" />
    <glyph glyph-name="approxequal" unicode="&#x2248;" horiz-adv-x="901" 
d="M317 1434h267v-977l96 28q55 17 82 -20t0 -80l-313 -416l-308 416q-31 41 -6 74q29 43 82 26l100 -28v977z" />
    <glyph glyph-name="notequal" unicode="&#x2260;" 
d="M924 608v-254l98 39q45 14 68 -22q14 -25 -7 -58l-264 -344l-270 344q-18 33 -4 58q25 37 71 22l95 -39v254h-285l41 -94q14 -47 -25 -72q-23 -14 -55 4l-346 271l346 264q31 20 55 6q37 -20 25 -67l-41 -99h285v258l-95 -39q-45 -16 -71 23q-14 25 4 57l270 344
l264 -344q20 -34 2 -64t-63 -16l-98 39v-258h288l-41 99q-12 47 19 64t63 -3l344 -264l-344 -271q-35 -18 -57 -4q-37 23 -25 74l41 92h-288z" />
    <glyph glyph-name="lessequal" unicode="&#x2264;" 
d="M924 608v-254l98 39q45 14 68 -22q14 -25 -7 -58l-264 -344l-270 344q-18 33 -4 58q25 37 71 22l95 -39v254h-285l41 -94q14 -47 -25 -72q-23 -14 -55 4l-346 271l346 264q31 20 55 6q37 -20 25 -67l-41 -99h285v258l-95 -39q-45 -16 -71 23q-14 25 4 57l270 344
l264 -344q20 -34 2 -64t-63 -16l-98 39v-258h288l-41 99q-12 47 19 64t63 -3l344 -264l-344 -271q-35 -18 -57 -4q-37 23 -25 74l41 92h-288z" />
    <glyph glyph-name="greaterequal" unicode="&#x2265;" 
d="M924 608v-254l98 39q45 14 68 -22q14 -25 -7 -58l-264 -344l-270 344q-18 33 -4 58q25 37 71 22l95 -39v254h-285l41 -94q14 -47 -25 -72q-23 -14 -55 4l-346 271l346 264q31 20 55 6q37 -20 25 -67l-41 -99h285v258l-95 -39q-45 -16 -71 23q-14 25 4 57l270 344
l264 -344q20 -34 2 -64t-63 -16l-98 39v-258h288l-41 99q-12 47 19 64t63 -3l344 -264l-344 -271q-35 -18 -57 -4q-37 23 -25 74l41 92h-288z" />
    <glyph glyph-name="lozenge" unicode="&#x25ca;" 
d="M924 608v-254l98 39q45 14 68 -22q14 -25 -7 -58l-264 -344l-270 344q-18 33 -4 58q25 37 71 22l95 -39v254h-285l41 -94q14 -47 -25 -72q-23 -14 -55 4l-346 271l346 264q31 20 55 6q37 -20 25 -67l-41 -99h285v258l-95 -39q-45 -16 -71 23q-14 25 4 57l270 344
l264 -344q20 -34 2 -64t-63 -16l-98 39v-258h288l-41 99q-12 47 19 64t63 -3l344 -264l-344 -271q-35 -18 -57 -4q-37 23 -25 74l41 92h-288z" />
    <glyph glyph-name="apple" unicode="&#xf8ff;" 
d="M924 608v-254l98 39q45 14 68 -22q14 -25 -7 -58l-264 -344l-270 344q-18 33 -4 58q25 37 71 22l95 -39v254h-285l41 -94q14 -47 -25 -72q-23 -14 -55 4l-346 271l346 264q31 20 55 6q37 -20 25 -67l-41 -99h285v258l-95 -39q-45 -16 -71 23q-14 25 4 57l270 344
l264 -344q20 -34 2 -64t-63 -16l-98 39v-258h288l-41 99q-12 47 19 64t63 -3l344 -264l-344 -271q-35 -18 -57 -4q-37 23 -25 74l41 92h-288z" />
    <glyph glyph-name="NUL" horiz-adv-x="0" 
 />
    </font>
</defs>
</svg>
