<?xml version="1.0" standalone="no"?>
<!DOCTYPE svg PUBLIC "-//W3C//DTD SVG 1.1//EN" "http://www.w3.org/Graphics/SVG/1.1/DTD/svg11.dtd" >
<svg xmlns="http://www.w3.org/2000/svg">
<metadata>
Created by FontPrep 20130207 at Wed Jun 11 11:11:32 2014
 By Alexandre Cougard
Copyright (c) The Font Bureau, Inc., 2003. All rights reserved.
</metadata>
<defs>
<font id="b3f1eaab67ba33d7f766bdc7b12fbe90" horiz-adv-x='1024' >
  <font-face 
    font-family="Interstate-Light"
    font-weight="300"
    font-stretch="normal"
    units-per-em="2048"
    panose-1="2 0 5 6 3 0 0 2 0 4"
    ascent="1638"
    descent="-410"
    x-height="1075"
    cap-height="1434"
    bbox="-106 -395 2662 1872"
    underline-thickness="40"
    underline-position="-231"
    unicode-range="U+0020-FB02"
  />
<missing-glyph horiz-adv-x="1024" 
 />
    <glyph glyph-name="fi" unicode="fi" horiz-adv-x="1222" 
d="M1042 0h-153v1075h153v-1075zM508 1348q-111 0 -111 -113v-160h211v-129h-211v-946h-153v946h-148v129h148v148q0 264 254 264q80 0 135 -19v-145q-53 25 -125 25zM1075 1376q0 -45 -32 -77q-33 -31 -77 -31t-77 32t-33 77q0 46 33 78t78 32t77 -33t31 -78z" />
    <glyph glyph-name="fl" unicode="fl" horiz-adv-x="1222" 
d="M508 1348q-111 0 -111 -113v-160h211v-129h-211v-946h-153v946h-148v129h148v148q0 264 254 264q80 0 135 -19v-145q-53 25 -125 25zM1042 0h-153v1407l153 86v-1493z" />
    <glyph glyph-name=".notdef" horiz-adv-x="1024" 
 />
    <glyph glyph-name=".null" horiz-adv-x="0" 
 />
    <glyph glyph-name="nonmarkingreturn" horiz-adv-x="681" 
 />
    <glyph glyph-name="space" unicode=" " horiz-adv-x="532" 
 />
    <glyph glyph-name="space" unicode="&#xa0;" horiz-adv-x="532" 
 />
    <glyph glyph-name="exclam" unicode="!" horiz-adv-x="538" 
d="M393 102q0 -51 -38 -88t-88 -37t-87 37t-37 88q0 50 37 90t87 40t88 -40q38 -39 38 -90zM190 1434h158v-674l-37 -375h-86l-35 375v674z" />
    <glyph glyph-name="quotedbl" unicode="&#x22;" horiz-adv-x="942" 
d="M362 1434l-34 -670h-121l-35 670h190zM770 1434l-35 -670h-121l-34 670h190z" />
    <glyph glyph-name="numbersign" unicode="#" horiz-adv-x="1376" 
d="M870 504v426h-364v-426h364zM1270 360h-246v-360h-154v360h-364v-360h-154v360h-246v144h246v426h-246v143h246v361h154v-361h364v361h154v-361h246v-143h-246v-426h246v-144z" />
    <glyph glyph-name="dollar" unicode="$" horiz-adv-x="1191" 
d="M1059 389q1 -158 -105 -262t-292 -125v-207h-154v207q-242 27 -406 195l107 118q178 -172 381 -172q145 -1 227 61t82 168t-72 166q-72 62 -289 140t-306 163t-89 237q-1 152 97 244q98 91 268 110v206h154v-204q195 -16 366 -152l-102 -125q-162 133 -344 133
q-141 0 -210 -55t-69 -146t66 -147t290 -137q224 -80 312 -169t88 -247z" />
    <glyph glyph-name="percent" unicode="%" horiz-adv-x="1972" 
d="M1325 424q0 -144 52 -234q51 -90 139 -90t140 94t52 231q0 138 -52 229t-140 91t-140 -89t-51 -232zM264 1012q0 -144 52 -234t140 -90t139 94q52 94 52 231q0 138 -52 229t-140 91q-87 0 -139 -89t-52 -232zM1513 -23q-149 0 -239 122t-90 322q0 199 91 323t244 124
t241 -122t89 -320q0 -199 -93 -324t-243 -125zM1505 1434l-891 -1434h-149l891 1434h149zM123 1009q0 199 91 323t244 124q154 0 242 -122t88 -320q0 -199 -93 -324t-243 -125t-239 122q-90 122 -90 322z" />
    <glyph glyph-name="ampersand" unicode="&#x26;" horiz-adv-x="1318" 
d="M860 256l-332 434q-250 -115 -249 -323q1 -109 75 -180t207 -70q176 0 299 139zM125 354q0 160 80 259t241 182l-49 65q-63 84 -95 148t-32 139q0 137 100 223t265 86q219 0 381 -129l-82 -127q-147 117 -301 117q-93 0 -149 -44t-56 -126t86 -193l436 -567q49 90 99 252
l135 -41q-49 -182 -144 -328l207 -270h-188l-115 150q-168 -172 -389 -172t-326 107q-104 109 -104 269z" />
    <glyph glyph-name="quotesingle" unicode="'" horiz-adv-x="526" 
d="M360 1434l-34 -670h-125l-35 670h194z" />
    <glyph glyph-name="parenleft" unicode="(" horiz-adv-x="712" 
d="M129 620q0 466 416 846l67 -63q-326 -337 -326 -783t326 -782l-67 -63q-416 379 -416 845z" />
    <glyph glyph-name="parenright" unicode=")" horiz-adv-x="712" 
d="M584 621q0 -467 -416 -846l-68 63q326 336 326 782t-326 783l68 63q416 -378 416 -845z" />
    <glyph glyph-name="asterisk" unicode="*" horiz-adv-x="1024" 
d="M877 911l-64 -110l-272 203l34 -340h-126l34 340l-272 -203l-64 110l304 138l-304 137l64 110l272 -202l-34 340h126l-34 -340l272 202l64 -110l-304 -137z" />
    <glyph glyph-name="plus" unicode="+" horiz-adv-x="1181" 
d="M1069 635h-403v-416h-150v416h-403v139h403v416h150v-416h403v-139z" />
    <glyph glyph-name="comma" unicode="," horiz-adv-x="491" 
d="M362 236l-133 -478h-106l31 478h208z" />
    <glyph glyph-name="hyphen" unicode="-" horiz-adv-x="659" 
d="M555 674h-451v149h451v-149z" />
    <glyph glyph-name="hyphen" unicode="&#xad;" horiz-adv-x="659" 
d="M555 674h-451v149h451v-149z" />
    <glyph glyph-name="period" unicode="." horiz-adv-x="491" 
d="M377 109q0 -53 -39 -93t-92 -39q-53 0 -92 39q-39 38 -39 92t39 95t91 41t92 -41t40 -94z" />
    <glyph glyph-name="slash" unicode="/" horiz-adv-x="870" 
d="M817 1618l-612 -1802h-152l613 1802h151z" />
    <glyph glyph-name="zero" unicode="0" horiz-adv-x="1314" 
d="M1036 717q0 281 -97 439t-281 157q-184 0 -282 -158q-97 -159 -97 -439t97 -438t281 -157q183 -1 281 157t98 439zM1194 717q0 -350 -146 -545t-390 -195t-391 195q-146 195 -146 545t146 545q146 194 390 194t391 -194q146 -195 146 -545z" />
    <glyph glyph-name="one" unicode="1" horiz-adv-x="638" 
d="M449 0h-158v1147h-260v100q266 16 297 187h121v-1434z" />
    <glyph glyph-name="two" unicode="2" horiz-adv-x="1165" 
d="M1022 0h-942q12 257 137 419q66 83 136 142q71 59 223 163t214 178q60 72 60 178t-77 169t-216 64q-195 0 -348 -133l-92 116q98 80 199 120t247 40q201 0 323 -95t122 -283t-146 -314q-68 -59 -246 -181t-256 -216t-98 -215h760v-152z" />
    <glyph glyph-name="three" unicode="3" horiz-adv-x="1153" 
d="M1020 412q0 -203 -136 -319t-374 -116q-129 -1 -250 57t-194 142l106 107q152 -162 346 -162q344 0 344 287q0 130 -92 200t-248 70h-94v137h98q135 0 206 69t71 185q0 244 -295 244q-164 0 -289 -131l-100 102q164 172 378 172t339 -94t125 -272q0 -231 -203 -336
q114 -25 188 -110t74 -232z" />
    <glyph glyph-name="four" unicode="4" horiz-adv-x="1280" 
d="M846 477v766q-78 -111 -203 -270l-194 -252q-143 -184 -195 -244h592zM1190 340h-197v-340h-147v340h-766v133l741 961h172v-957h197v-137z" />
    <glyph glyph-name="five" unicode="5" horiz-adv-x="1239" 
d="M1110 477q0 -250 -145 -375t-395 -125t-451 132l78 127q179 -115 373 -115t288 94q94 93 94 243t-88 230t-254 80t-299 -92l-157 61l49 697h821v-152h-684l-35 -461q131 90 316 90q241 1 365 -117t124 -317z" />
    <glyph glyph-name="six" unicode="6" horiz-adv-x="1257" 
d="M651 121q167 0 263 86t96 228t-94 222t-265 80q-170 0 -269 -83t-99 -219t100 -225t268 -89zM1167 437q0 -218 -147 -339q-148 -121 -380 -121q-232 -1 -374 137t-141 411q0 273 112 490q62 120 153 212q92 92 238 155t326 74v-141q-563 -49 -675 -602q158 168 413 168
q209 0 342 -113t133 -331z" />
    <glyph glyph-name="seven" unicode="7" horiz-adv-x="1138" 
d="M33 1282v152h942v-150q-465 -573 -477 -1284h-162q18 694 465 1282h-768z" />
    <glyph glyph-name="eight" unicode="8" horiz-adv-x="1302" 
d="M1026 397q0 129 -100 210t-276 81t-275 -79t-99 -208t96 -205t281 -75q185 -1 279 73t94 203zM965 1071q0 102 -78 172t-238 70q-159 0 -235 -69t-76 -172t85 -172t227 -69t229 69q86 69 86 171zM1184 401q0 -205 -142 -315t-393 -109q-250 0 -390 108t-140 312
q0 276 284 371q-223 88 -223 303q0 173 125 279t348 106t346 -104t123 -277q0 -209 -223 -303q285 -95 285 -371z" />
    <glyph glyph-name="nine" unicode="9" horiz-adv-x="1257" 
d="M975 998q-1 136 -101 226t-268 89q-168 0 -263 -86q-95 -87 -95 -229t94 -222t264 -80t270 83q99 83 99 219zM565 553q-209 0 -342 113q-133 112 -133 330t148 339t379 121q232 0 374 -137t142 -411t-112 -489q-61 -120 -153 -212q-92 -91 -238 -155t-327 -75v142
q563 49 676 602q-158 -168 -414 -168z" />
    <glyph glyph-name="colon" unicode=":" horiz-adv-x="491" 
d="M377 109q0 -53 -39 -93t-92 -39q-53 0 -92 39q-39 38 -39 92t39 95t91 41t92 -41t40 -94zM377 963q0 -53 -39 -93t-92 -39q-53 0 -92 39q-39 38 -39 92t39 95t91 41t92 -41t40 -94z" />
    <glyph glyph-name="semicolon" unicode=";" horiz-adv-x="491" 
d="M348 236l-133 -478h-106l30 478h209zM377 963q0 -53 -39 -93t-92 -39q-53 0 -92 39q-39 38 -39 92t39 95t91 41t92 -41t40 -94z" />
    <glyph glyph-name="less" unicode="&#x3c;" horiz-adv-x="788" 
d="M647 127l-530 508v139l530 508v-190l-409 -385l409 -385v-195z" />
    <glyph glyph-name="equal" unicode="=" horiz-adv-x="1181" 
d="M1018 410h-854v143h854v-143zM1018 856h-854v143h854v-143z" />
    <glyph glyph-name="greater" unicode="&#x3e;" horiz-adv-x="788" 
d="M672 635l-531 -508v190l410 385l-410 385v195l531 -508v-139z" />
    <glyph glyph-name="question" unicode="?" horiz-adv-x="1148" 
d="M645 102q0 -51 -38 -88t-88 -37t-87 37t-37 88q0 50 37 90t87 40t88 -40q38 -39 38 -90zM1012 1104q0 -137 -58 -212q-58 -76 -178 -148t-147 -134t-27 -225h-158q0 209 41 290t201 179q88 53 127 104q39 52 39 142t-80 150t-209 61q-201 0 -370 -158l-103 113
q195 190 479 190q201 0 322 -91t121 -261z" />
    <glyph glyph-name="at" unicode="@" horiz-adv-x="1712" 
d="M817 414q71 0 135 34t101 89v165q-98 60 -214 60t-173 -46t-58 -118q0 -184 209 -184zM1595 737q0 -426 -303 -426q-74 0 -132 36t-87 93q-101 -129 -253 -129t-239 72t-87 204t93 203q93 70 233 70t233 -55v121q0 131 -211 131q-106 0 -209 -49l-45 88q127 63 268 63
q303 0 303 -227v-395q0 -59 36 -97t110 -37q188 0 188 332q0 277 -180 451t-458 174t-457 -176t-179 -464t179 -467t458 -179q152 0 279 63l36 -90q-154 -70 -315 -70q-322 0 -530 209t-209 531q0 323 209 531q208 208 530 208t530 -210t209 -509z" />
    <glyph glyph-name="A" unicode="A" horiz-adv-x="1388" 
d="M940 510l-158 471q-66 186 -88 283q-25 -96 -90 -287l-158 -467h494zM1280 0h-168l-123 365h-592l-125 -365h-163l497 1434h176z" />
    <glyph glyph-name="B" unicode="B" horiz-adv-x="1282" 
d="M1010 416q0 133 -82 208t-223 74h-357v-553h365q297 1 297 271zM942 1070q0 102 -59 160t-176 58h-359v-446h346q127 0 188 63q60 64 60 165zM1169 424q0 -211 -119 -318q-120 -106 -348 -106h-514v1434h525q178 0 283 -90t106 -269q0 -219 -207 -293q274 -73 274 -358z
" />
    <glyph glyph-name="C" unicode="C" horiz-adv-x="1286" 
d="M707 -23q-260 0 -420 209t-160 530q0 320 164 530t422 210q291 0 456 -229l-127 -97q-72 96 -146 138t-187 43q-184 0 -303 -166t-119 -426t121 -428t303 -168q209 0 354 188l111 -96q-176 -238 -469 -238z" />
    <glyph glyph-name="D" unicode="D" horiz-adv-x="1347" 
d="M1061 721q0 275 -130 421t-376 146h-207v-1143h211q502 1 502 576zM567 1434q297 0 475 -176t179 -540q1 -362 -187 -540t-495 -178h-351v1434h379z" />
    <glyph glyph-name="E" unicode="E" horiz-adv-x="1202" 
d="M1085 0h-897v1434h867v-146h-707v-450h410v-146h-410v-547h737v-145z" />
    <glyph glyph-name="F" unicode="F" horiz-adv-x="1122" 
d="M1030 1288h-682v-475h393v-145h-393v-668h-160v1434h842v-146z" />
    <glyph glyph-name="G" unicode="G" horiz-adv-x="1349" 
d="M1237 571q0 -287 -146 -441t-395 -153q-249 0 -409 209t-160 530q0 320 164 530t422 210q291 0 456 -229l-127 -97q-72 96 -146 138t-187 43q-184 0 -303 -166t-119 -426t121 -428t302 -168q181 -1 276 109t95 319v12h-258v148h414v-140z" />
    <glyph glyph-name="H" unicode="H" horiz-adv-x="1409" 
d="M1221 0h-160v676h-713v-676h-160v1434h160v-613h713v613h160v-1434z" />
    <glyph glyph-name="I" unicode="I" horiz-adv-x="557" 
d="M358 0h-159v1434h159v-1434z" />
    <glyph glyph-name="J" unicode="J" horiz-adv-x="1183" 
d="M1006 549q0 -571 -490 -572q-338 0 -455 347l152 51q47 -125 118 -189t191 -63q172 0 248 102t76 330v879h160v-885z" />
    <glyph glyph-name="K" unicode="K" horiz-adv-x="1314" 
d="M348 0h-160v1434h160v-818q76 109 209 281l416 537h174l-420 -539l500 -895h-183l-423 764l-273 -352v-412z" />
    <glyph glyph-name="L" unicode="L" horiz-adv-x="1177" 
d="M1057 0h-869v1434h160v-1289h709v-145z" />
    <glyph glyph-name="M" unicode="M" horiz-adv-x="1613" 
d="M1425 0h-153v1124q-18 -70 -86 -237l-383 -924l-377 924q-59 141 -84 237v-1124h-154v1434h179l338 -859q80 -199 102 -278q20 70 102 278l342 859h174v-1434z" />
    <glyph glyph-name="N" unicode="N" horiz-adv-x="1409" 
d="M1221 0h-150l-627 981q-61 98 -102 180v-1161h-154v1434h156l621 -1000q61 -98 102 -180v1180h154v-1434z" />
    <glyph glyph-name="O" unicode="O" horiz-adv-x="1443" 
d="M1157 715q0 266 -125 431t-314 165t-310 -163t-121 -429t124 -431t313 -165t311 163t122 429zM1317 719q0 -326 -166 -534t-432 -208t-429 206t-163 532q0 325 165 533t431 208t430 -206t164 -531z" />
    <glyph glyph-name="P" unicode="P" horiz-adv-x="1265" 
d="M1022 999q0 139 -78 214t-225 75h-371v-579h350q324 -1 324 290zM1182 1006q0 -209 -133 -326t-353 -117h-348v-563h-160v1434h537q205 0 331 -110t126 -318z" />
    <glyph glyph-name="Q" unicode="Q" horiz-adv-x="1443" 
d="M1157 715q0 266 -125 431t-314 165t-310 -163t-121 -429t124 -431t314 -165q74 0 135 24l-117 191l131 78l115 -189q168 162 168 488zM1317 719q0 -197 -67 -358t-185 -259l92 -149l-131 -78l-90 148q-102 -45 -217 -46q-266 0 -429 206t-163 532q0 325 165 533t431 208
t430 -206t164 -531z" />
    <glyph glyph-name="R" unicode="R" horiz-adv-x="1331" 
d="M729 754q313 0 313 267t-292 267h-402v-534h381zM756 1434q198 0 322 -104t124 -284q0 -182 -90 -286t-248 -137l316 -623h-185l-307 610h-340v-610h-160v1434h568z" />
    <glyph glyph-name="S" unicode="S" horiz-adv-x="1212" 
d="M1069 370q0 -167 -128 -280t-347 -113q-141 1 -267 55t-214 144l106 119q178 -172 381 -172q143 1 226 67t83 172t-73 174q-74 68 -288 144t-304 166t-90 252t122 260q123 98 326 98q244 0 436 -153l-102 -125q-162 133 -344 133q-139 1 -209 -59t-70 -153t67 -153
t289 -141q222 -80 311 -174t89 -261z" />
    <glyph glyph-name="T" unicode="T" horiz-adv-x="1204" 
d="M1104 1288h-422v-1288h-160v1288h-422v146h1004v-146z" />
    <glyph glyph-name="U" unicode="U" horiz-adv-x="1388" 
d="M1210 586q0 -608 -514 -609q-256 0 -387 153t-131 452v852h160v-848q0 -463 367 -463q182 -1 264 111t82 348v852h159v-848z" />
    <glyph glyph-name="V" unicode="V" horiz-adv-x="1368" 
d="M1260 1434l-488 -1434h-176l-487 1434h167l320 -981q55 -168 88 -283q6 23 90 287l322 977h164z" />
    <glyph glyph-name="W" unicode="W" horiz-adv-x="1753" 
d="M1636 1434l-286 -1434h-181l-225 918q-43 178 -70 323q-20 -104 -69 -323l-225 -918h-177l-286 1434h159l168 -922q8 -47 28 -166t26 -153q25 139 67 315l228 926h172l227 -926q43 -176 68 -315q6 35 25 153t28 166l168 922h155z" />
    <glyph glyph-name="X" unicode="X" horiz-adv-x="1294" 
d="M1178 0h-181l-219 375q-98 170 -131 237q-78 -147 -131 -237l-223 -375h-176l446 745l-409 689h180l184 -314q53 -90 131 -237q33 68 131 237l185 314h176l-410 -684z" />
    <glyph glyph-name="Y" unicode="Y" horiz-adv-x="1335" 
d="M748 0h-160v567l-492 867h183l229 -412q106 -195 162 -307q70 141 161 307l230 412h178l-491 -865v-569z" />
    <glyph glyph-name="Z" unicode="Z" horiz-adv-x="1286" 
d="M1149 0h-1024v139l678 924q76 104 174 231h-811v140h983v-140l-678 -923q-76 -104 -174 -232h852v-139z" />
    <glyph glyph-name="bracketleft" unicode="[" horiz-adv-x="720" 
d="M592 -225h-397v1659h397v-125h-248v-1409h248v-125z" />
    <glyph glyph-name="backslash" unicode="\" horiz-adv-x="870" 
d="M817 -184h-151l-613 1802h152z" />
    <glyph glyph-name="bracketright" unicode="]" horiz-adv-x="720" 
d="M526 -225h-397v125h248v1409h-248v125h397v-1659z" />
    <glyph glyph-name="asciicircum" unicode="^" horiz-adv-x="1142" 
d="M1047 782h-177l-301 484l-301 -484h-172l418 652h115z" />
    <glyph glyph-name="underscore" unicode="_" horiz-adv-x="1024" 
d="M1024 -313h-1024v129h1024v-129z" />
    <glyph glyph-name="grave" unicode="`" horiz-adv-x="1024" 
d="M668 1219h-121l-309 327h219z" />
    <glyph glyph-name="a" unicode="a" horiz-adv-x="1103" 
d="M258 324q0 -108 58 -165q58 -56 161 -57q192 0 309 162v217q-111 61 -253 61q-143 0 -209 -54q-66 -56 -66 -164zM940 0h-154v131q-141 -154 -335 -154q-145 0 -245 82q-100 81 -100 257t119 263t284 87t277 -62v127q0 238 -233 238q-152 0 -293 -82l-57 125
q158 86 360 86q377 0 377 -348v-750z" />
    <glyph glyph-name="b" unicode="b" horiz-adv-x="1144" 
d="M881 553q0 201 -72 306t-201 106q-160 0 -284 -156v-537q48 -72 124 -116t166 -45q267 0 267 442zM1032 553q0 -272 -114 -424t-291 -152q-176 0 -303 144v-121h-154v1407l154 86v-549q141 154 318 154t284 -136q106 -137 106 -409z" />
    <glyph glyph-name="c" unicode="c" horiz-adv-x="1013" 
d="M569 965q-133 0 -217 -112q-84 -113 -84 -311t81 -315t216 -117t254 115l92 -98q-145 -150 -341 -150q-196 1 -326 145q-131 144 -131 416t137 416q136 144 328 144t337 -127l-92 -115q-121 109 -254 109z" />
    <glyph glyph-name="d" unicode="d" horiz-adv-x="1144" 
d="M530 965q-266 0 -266 -443q0 -201 72 -306t201 -105q159 -1 284 155v537q-47 72 -124 117t-167 45zM975 0h-154v131q-141 -154 -318 -154q-177 1 -283 137t-107 408q0 272 114 424q115 152 291 152t303 -144v453l154 86v-1493z" />
    <glyph glyph-name="e" unicode="e" horiz-adv-x="1105" 
d="M846 610q-10 164 -83 259t-202 95t-205 -88q-76 -89 -90 -266h580zM989 569q0 -47 -6 -84h-717q10 -174 89 -274t210 -100q87 -1 151 23t146 79l72 -111q-106 -68 -188 -96t-179 -29q-179 0 -309 124q-66 63 -106 177t-39 265q0 251 125 403q124 152 324 152t314 -146
t113 -383z" />
    <glyph glyph-name="f" unicode="f" horiz-adv-x="729" 
d="M508 1348q-111 0 -111 -113v-160h211v-129h-211v-946h-153v946h-148v129h148v148q0 264 254 264q80 0 135 -19v-145q-53 25 -125 25z" />
    <glyph glyph-name="g" unicode="g" horiz-adv-x="1144" 
d="M530 965q-266 0 -266 -443q0 -201 72 -306t201 -105q159 -1 284 155v537q-47 72 -124 117t-167 45zM975 96q0 -248 -125 -366t-420 -125l-49 116q262 8 351 85t89 270v55q-141 -154 -318 -154q-177 1 -283 137t-107 408q0 272 114 424q115 152 291 152t303 -144v121h154
v-979z" />
    <glyph glyph-name="h" unicode="h" horiz-adv-x="1161" 
d="M844 629q0 336 -249 336q-124 0 -198 -84t-73 -252v-629h-154v1407l154 86v-549q104 154 290 154t284 -109q99 -109 99 -334v-655h-153v629z" />
    <glyph glyph-name="i" unicode="i" horiz-adv-x="514" 
d="M334 0h-154v1075h154v-1075zM367 1376q0 -45 -32 -77q-32 -31 -77 -31t-78 32t-33 77q0 46 33 78t78 32t77 -33t32 -78z" />
    <glyph glyph-name="j" unicode="j" horiz-adv-x="514" 
d="M334 25q0 -195 -62 -283t-256 -137l-51 114q141 43 178 99t37 209v1048h154v-1050zM367 1376q0 -45 -32 -77q-32 -31 -77 -31t-78 32t-33 77q0 46 33 78t78 32t77 -33t32 -78z" />
    <glyph glyph-name="k" unicode="k" horiz-adv-x="1034" 
d="M324 0h-154v1407l154 86v-983l43 65l352 500h172l-283 -381l340 -694h-166l-272 565l-186 -256v-309z" />
    <glyph glyph-name="l" unicode="l" horiz-adv-x="514" 
d="M334 0h-154v1407l154 86v-1493z" />
    <glyph glyph-name="m" unicode="m" horiz-adv-x="1736" 
d="M1573 0h-154v629q0 180 -56 258t-175 78q-240 0 -240 -336v-629h-153v629q1 178 -57 257t-175 79q-240 0 -239 -336v-629h-154v1075h154v-131q92 154 284 154t283 -185q115 184 326 185q356 0 356 -443v-655z" />
    <glyph glyph-name="n" unicode="n" horiz-adv-x="1161" 
d="M844 629q0 336 -249 336q-124 0 -198 -84t-73 -252v-629h-154v1075h154v-131q104 154 290 154t284 -109q99 -109 99 -334v-655h-153v629z" />
    <glyph glyph-name="o" unicode="o" horiz-adv-x="1159" 
d="M893 541q0 207 -85 315t-228 109q-144 0 -228 -109q-84 -110 -84 -316t84 -318t228 -112t228 112q85 112 85 319zM1047 545q1 -264 -133 -416t-339 -152q-205 -1 -333 147t-129 412q0 264 133 413t338 149t334 -144t129 -409z" />
    <glyph glyph-name="p" unicode="p" horiz-adv-x="1144" 
d="M881 553q0 201 -72 306t-201 106q-160 0 -284 -156v-537q48 -72 124 -116t166 -45q267 0 267 442zM1032 553q0 -272 -114 -424t-291 -152q-176 0 -303 144v-430l-154 -86v1470h154v-131q141 154 318 154t284 -136q106 -137 106 -409z" />
    <glyph glyph-name="q" unicode="q" horiz-adv-x="1144" 
d="M530 965q-266 0 -266 -443q0 -201 72 -306t201 -105q159 -1 284 155v537q-47 72 -124 117t-167 45zM503 -23q-177 1 -283 137t-107 408q0 272 114 424q115 152 291 152t303 -144v121h154v-1384l-154 -86v526q-141 -154 -318 -154z" />
    <glyph glyph-name="r" unicode="r" horiz-adv-x="833" 
d="M546 956q-102 0 -162 -86t-60 -239v-631h-154v1075h154v-133q39 68 110 112q72 44 168 44t156 -27l-39 -156q-71 41 -173 41z" />
    <glyph glyph-name="s" unicode="s" horiz-adv-x="956" 
d="M836 281q0 -150 -108 -227t-261 -77q-207 0 -379 138l90 112q135 -119 293 -118q217 0 217 165q0 66 -54 111t-213 114t-225 135t-67 190q0 122 94 198t242 76q205 0 344 -115l-86 -113q-123 96 -268 97q-84 0 -131 -37q-48 -38 -48 -100t48 -102t164 -92
q118 -52 164 -78q133 -75 164 -158q20 -49 20 -119z" />
    <glyph glyph-name="t" unicode="t" horiz-adv-x="761" 
d="M633 946h-266v-700q-1 -72 23 -101t94 -29t143 31l-11 -133q-88 -37 -194 -37q-106 -1 -158 57t-51 187v725h-133v129h133v332l154 86v-418h266v-129z" />
    <glyph glyph-name="u" unicode="u" horiz-adv-x="1161" 
d="M317 446q0 -335 249 -335q124 0 198 84t74 251v629h153v-1075h-153v131q-104 -154 -290 -154t-285 109t-99 334v655h153v-629z" />
    <glyph glyph-name="v" unicode="v" horiz-adv-x="1069" 
d="M987 1075l-385 -1075h-135l-385 1075h164l291 -897l290 897h160z" />
    <glyph glyph-name="w" unicode="w" horiz-adv-x="1495" 
d="M1399 1075l-285 -1075h-141l-195 721q-20 74 -33 151q-12 -78 -32 -151l-195 -721h-137l-285 1075h158l168 -710q4 -21 15 -79t16 -73q23 109 34 152l193 710h139l193 -710q12 -43 35 -152q4 15 15 73t15 79l168 710h154z" />
    <glyph glyph-name="x" unicode="x" horiz-adv-x="1032" 
d="M928 0h-170l-246 432l-248 -432h-160l332 555l-309 520h170l223 -393l225 393h160l-309 -516z" />
    <glyph glyph-name="y" unicode="y" horiz-adv-x="1087" 
d="M1006 1075l-535 -1454h-154l148 391l-383 1063h162l299 -891l301 891h162z" />
    <glyph glyph-name="z" unicode="z" horiz-adv-x="1007" 
d="M872 0h-761v113l587 833h-540v129h714v-112l-587 -834h587v-129z" />
    <glyph glyph-name="braceleft" unicode="{" horiz-adv-x="813" 
d="M287 211v176q0 88 -26 118t-95 30h-49v143h49q70 0 96 30t25 117v183q0 217 101 323t317 113v-129q-143 -16 -205 -82t-62 -207v-143q0 -127 -25 -187q-26 -59 -96 -92q70 -33 96 -92t25 -186v-133q0 -141 62 -207t205 -82v-129q-215 6 -317 112q-101 106 -101 324z" />
    <glyph glyph-name="bar" unicode="|" horiz-adv-x="622" 
d="M385 -379h-147v2017h147v-2017z" />
    <glyph glyph-name="braceright" unicode="}" horiz-adv-x="813" 
d="M696 541h-49q-69 0 -95 -30t-26 -118v-182q0 -217 -101 -323t-316 -113v129q143 16 204 82t62 207v143q0 127 25 186q26 59 96 92q-70 32 -96 92t-25 187v133q1 141 -61 207t-205 82v129q215 -6 316 -112t101 -324v-177q0 -87 26 -117t95 -30h49v-143z" />
    <glyph glyph-name="asciitilde" unicode="~" horiz-adv-x="1130" 
d="M382 756q-54 0 -86 -35t-73 -127l-135 61q55 135 122 197t162 61q94 -1 210 -75t168 -74t84 33q31 33 73 129l135 -62q-56 -135 -122 -196q-66 -62 -162 -62t-209 75t-167 75z" />
    <glyph glyph-name="exclamdown" unicode="&#xa1;" horiz-adv-x="538" 
d="M348 0h-158v674l37 375h86l35 -375v-674zM395 1331q0 -51 -37 -90t-87 -39t-88 39t-38 90t38 88t88 37t87 -37t37 -88z" />
    <glyph glyph-name="cent" unicode="&#xa2;" horiz-adv-x="1013" 
d="M268 735q0 -199 81 -315t218 -117q137 0 254 113l90 -97q-119 -121 -268 -143v-199h-158v199q-162 29 -267 170t-105 381t106 381t266 174v193h158v-189q155 -21 272 -123l-88 -110q-70 57 -125 81t-137 23q-129 1 -213 -111t-84 -311z" />
    <glyph glyph-name="sterling" unicode="&#xa3;" horiz-adv-x="1251" 
d="M1130 0h-958v143q102 119 151 218q48 99 50 239h-201v139h178q-16 41 -67 129q-70 113 -70 230q0 168 129 263t330 95q246 0 442 -178l-96 -117q-158 152 -350 152q-142 -1 -220 -61q-148 -116 -12 -345q51 -86 74 -168h311v-139h-297q-8 -248 -172 -455h778v-145z" />
    <glyph glyph-name="currency" unicode="&#xa4;" horiz-adv-x="1218" 
d="M674 119q106 0 181 45t151 141l102 -90q-90 -117 -190 -177t-248 -61q-256 0 -403 195q-146 195 -146 545t149 545q150 195 406 194q148 0 246 -53t180 -176l-119 -92q-68 98 -135 139q-68 41 -176 41q-152 0 -247 -96t-130 -277h551v-129h-567q-7 -110 0 -174h567v-129
h-553q33 -188 129 -290t252 -101z" />
    <glyph glyph-name="yen" unicode="&#xa5;" horiz-adv-x="1253" 
d="M707 410h317v-142h-317v-268h-160v268h-336v142h336v157l-471 867h182l213 -412q98 -190 158 -317q59 131 157 317l213 412h179l-471 -865v-159z" />
    <glyph glyph-name="brokenbar" unicode="&#xa6;" 
d="M819 637v-367l164 62q15 6 19 -2t-5 -21l-247 -340l-248 340q-8 12 -6 19q4 10 20 4l164 -62v367h-338l61 -164q6 -16 -2 -19t-20 5l-340 248l340 247q12 8 20 6t2 -20l-61 -164h338v387l-164 -61q-16 -6 -19 2t5 20l248 340l247 -340q7 -12 5 -20t-19 -2l-164 61v-387
h330l-62 164q-5 16 3 20t20 -6l340 -247l-340 -248q-12 -8 -20 -5t-3 19l62 164h-330z" />
    <glyph glyph-name="section" unicode="&#xa7;" horiz-adv-x="1286" 
d="M1016 537q0 94 -66 152q-66 59 -226 99t-228 68q-225 -104 -226 -272q0 -94 66 -152t226 -99q160 -40 229 -69q225 105 225 273zM1174 549q0 -215 -254 -356q110 -83 110 -221t-110 -223t-287 -85q-213 0 -395 148l94 114q82 -68 152 -94t169 -25q98 0 159 43
q60 43 60 114t-63 121t-229 91q-266 68 -367 154q-100 86 -100 241q0 215 254 357q-111 84 -111 221t111 222t286 85q213 0 396 -147l-95 -115q-82 68 -152 94t-169 25q-99 0 -159 -43t-60 -114t63 -121q63 -51 279 -105t318 -140q100 -86 100 -241z" />
    <glyph glyph-name="dieresis" unicode="&#xa8;" horiz-adv-x="1024" 
d="M314 1462q46 0 79 -34t33 -79q0 -46 -33 -80t-79 -34t-80 33t-33 80q-1 46 33 80t80 34zM711 1462q45 0 79 -34t33 -79q-1 -46 -33 -80t-79 -34t-80 34t-33 80q0 45 34 79t79 34z" />
    <glyph glyph-name="copyright" unicode="&#xa9;" horiz-adv-x="1712" 
d="M868 291q-164 0 -258 121t-94 305t96 305t256 121t267 -139l-86 -68q-45 57 -87 81t-104 23q-102 0 -167 -90t-65 -231t66 -234q66 -92 172 -92t197 111l80 -70q-109 -143 -273 -143zM1495 717q0 283 -182 464q-183 181 -457 181t-456 -181t-183 -464q0 -283 182 -464
q183 -181 457 -181t457 181q182 181 182 464zM1595 717q0 -328 -210 -534t-529 -206t-529 206t-210 534q0 327 210 533t529 206t529 -206t210 -533z" />
    <glyph glyph-name="ordfeminine" unicode="&#xaa;" horiz-adv-x="931" 
d="M399 674q148 0 240 121v163q-91 46 -197 46t-157 -42t-51 -122t44 -123t121 -43zM778 578h-139v90q-109 -109 -244 -109t-217 67t-82 209t96 212q96 69 227 69q130 0 220 -43v88q0 178 -178 178q-127 0 -236 -65l-55 110q137 72 299 72q309 0 309 -280v-598z" />
    <glyph glyph-name="guillemotleft" unicode="&#xab;" horiz-adv-x="1179" 
d="M651 0h-174l-416 537l416 538h174l-415 -536zM1087 0h-174l-415 537l415 538h174l-415 -536z" />
    <glyph glyph-name="logicalnot" unicode="&#xac;" horiz-adv-x="1290" 
d="M113 635v143h809l-62 154q-6 10 4 17t25 -3l360 -239l-360 -240q-15 -10 -25 -3t-4 17l62 154h-809z" />
    <glyph glyph-name="registered" unicode="&#xae;" horiz-adv-x="1712" 
d="M903 766q172 0 172 138t-160 138h-217v-276h205zM922 1139q118 1 190 -59t72 -164q0 -200 -189 -244l183 -350h-127l-177 342h-176v-342h-108v817h332zM1495 717q0 283 -182 464q-183 181 -457 181t-456 -181t-183 -464q0 -283 182 -464q183 -181 457 -181t457 181
q182 181 182 464zM1595 717q0 -328 -210 -534t-529 -206t-529 206t-210 534q0 327 210 533t529 206t529 -206t210 -533z" />
    <glyph glyph-name="macron" unicode="&#xaf;" horiz-adv-x="1024" 
d="M791 1266h-558v143h558v-143z" />
    <glyph glyph-name="macron" unicode="&#x2c9;" horiz-adv-x="1024" 
d="M791 1266h-558v143h558v-143z" />
    <glyph glyph-name="degree" unicode="&#xb0;" horiz-adv-x="974" 
d="M735 1062q-1 118 -69 192t-179 75q-111 0 -179 -75q-68 -76 -68 -192t68 -191t180 -75t180 74q67 74 67 192zM870 1063q0 -168 -108 -281q-108 -112 -275 -112t-275 112t-108 281t110 281t274 112t274 -112q108 -112 108 -281z" />
    <glyph glyph-name="plusminus" unicode="&#xb1;" 
d="M819 637v-367l164 62q15 6 19 -2t-5 -21l-247 -340l-248 340q-8 12 -6 19q4 10 20 4l164 -62v367h-338l61 -164q6 -16 -2 -19t-20 5l-340 248l340 247q12 8 20 6t2 -20l-61 -164h338v387l-164 -61q-16 -6 -19 2t5 20l248 340l247 -340q7 -12 5 -20t-19 -2l-164 61v-387
h330l-62 164q-5 16 3 20t20 -6l340 -247l-340 -248q-12 -8 -20 -5t-3 19l62 164h-330z" />
    <glyph glyph-name="twosuperior" unicode="&#xb2;" 
d="M819 637v-367l164 62q15 6 19 -2t-5 -21l-247 -340l-248 340q-8 12 -6 19q4 10 20 4l164 -62v367h-338l61 -164q6 -16 -2 -19t-20 5l-340 248l340 247q12 8 20 6t2 -20l-61 -164h338v387l-164 -61q-16 -6 -19 2t5 20l248 340l247 -340q7 -12 5 -20t-19 -2l-164 61v-387
h330l-62 164q-5 16 3 20t20 -6l340 -247l-340 -248q-12 -8 -20 -5t-3 19l62 164h-330z" />
    <glyph glyph-name="threesuperior" unicode="&#xb3;" 
d="M819 637v-367l164 62q15 6 19 -2t-5 -21l-247 -340l-248 340q-8 12 -6 19q4 10 20 4l164 -62v367h-338l61 -164q6 -16 -2 -19t-20 5l-340 248l340 247q12 8 20 6t2 -20l-61 -164h338v387l-164 -61q-16 -6 -19 2t5 20l248 340l247 -340q7 -12 5 -20t-19 -2l-164 61v-387
h330l-62 164q-5 16 3 20t20 -6l340 -247l-340 -248q-12 -8 -20 -5t-3 19l62 164h-330z" />
    <glyph glyph-name="acute" unicode="&#xb4;" horiz-adv-x="1024" 
d="M786 1546l-309 -327h-121l211 327h219z" />
    <glyph glyph-name="mu" unicode="&#xb5;" horiz-adv-x="1576" 
d="M1536 707l-360 -240q-14 -10 -24 -3t-5 17l61 154h-839l61 -154q6 -10 -4 -17t-25 3l-360 240l360 239q15 10 25 3t4 -17l-61 -154h839l-61 154q-6 10 4 17t25 -3z" />
    <glyph glyph-name="mu" unicode="&#x3bc;" horiz-adv-x="1576" 
d="M1536 707l-360 -240q-14 -10 -24 -3t-5 17l61 154h-839l61 -154q6 -10 -4 -17t-25 3l-360 240l360 239q15 10 25 3t4 -17l-61 -154h839l-61 154q-6 10 4 17t25 -3z" />
    <glyph glyph-name="paragraph" unicode="&#xb6;" horiz-adv-x="1409" 
d="M1219 -379h-158v1673h-187v-1673h-157v914h-156q-197 1 -331 121t-134 328t134 329t331 121h658v-1813z" />
    <glyph glyph-name="periodcentered" unicode="&#xb7;" horiz-adv-x="491" 
d="M377 752q0 -52 -39 -92t-92 -40t-92 40q-39 38 -39 92t39 94q39 41 91 41t92 -41t40 -94z" />
    <glyph glyph-name="periodcentered" unicode="&#x2219;" horiz-adv-x="491" 
d="M377 752q0 -52 -39 -92t-92 -40t-92 40q-39 38 -39 92t39 94q39 41 91 41t92 -41t40 -94z" />
    <glyph glyph-name="cedilla" unicode="&#xb8;" horiz-adv-x="1024" 
d="M764 -217q0 -178 -244 -178q-129 0 -241 73l38 66q86 -55 189 -55q137 0 137 88q0 68 -65 67q-57 0 -99 -37l-73 29l51 164h92l-35 -104q44 28 104 28t103 -34t43 -107z" />
    <glyph glyph-name="onesuperior" unicode="&#xb9;" 
d="M819 637v-367l164 62q15 6 19 -2t-5 -21l-247 -340l-248 340q-8 12 -6 19q4 10 20 4l164 -62v367h-338l61 -164q6 -16 -2 -19t-20 5l-340 248l340 247q12 8 20 6t2 -20l-61 -164h338v387l-164 -61q-16 -6 -19 2t5 20l248 340l247 -340q7 -12 5 -20t-19 -2l-164 61v-387
h330l-62 164q-5 16 3 20t20 -6l340 -247l-340 -248q-12 -8 -20 -5t-3 19l62 164h-330z" />
    <glyph glyph-name="ordmasculine" unicode="&#xba;" horiz-adv-x="983" 
d="M733 1011q-1 159 -65 241t-176 81q-112 0 -178 -82q-64 -83 -64 -241t64 -242t178 -84q113 0 177 84t64 243zM111 1009q-1 211 107 329t277 118t273 -114t104 -327q0 -212 -108 -333t-277 -121q-168 0 -272 118t-104 330z" />
    <glyph glyph-name="guillemotright" unicode="&#xbb;" horiz-adv-x="1179" 
d="M682 539l-416 -539h-174l416 537l-416 538h174zM1118 539l-416 -539h-174l416 537l-416 538h174z" />
    <glyph glyph-name="onequarter" unicode="&#xbc;" 
d="M819 637v-367l164 62q15 6 19 -2t-5 -21l-247 -340l-248 340q-8 12 -6 19q4 10 20 4l164 -62v367h-338l61 -164q6 -16 -2 -19t-20 5l-340 248l340 247q12 8 20 6t2 -20l-61 -164h338v387l-164 -61q-16 -6 -19 2t5 20l248 340l247 -340q7 -12 5 -20t-19 -2l-164 61v-387
h330l-62 164q-5 16 3 20t20 -6l340 -247l-340 -248q-12 -8 -20 -5t-3 19l62 164h-330z" />
    <glyph glyph-name="onehalf" unicode="&#xbd;" 
d="M819 637v-367l164 62q15 6 19 -2t-5 -21l-247 -340l-248 340q-8 12 -6 19q4 10 20 4l164 -62v367h-338l61 -164q6 -16 -2 -19t-20 5l-340 248l340 247q12 8 20 6t2 -20l-61 -164h338v387l-164 -61q-16 -6 -19 2t5 20l248 340l247 -340q7 -12 5 -20t-19 -2l-164 61v-387
h330l-62 164q-5 16 3 20t20 -6l340 -247l-340 -248q-12 -8 -20 -5t-3 19l62 164h-330z" />
    <glyph glyph-name="threequarters" unicode="&#xbe;" 
d="M819 637v-367l164 62q15 6 19 -2t-5 -21l-247 -340l-248 340q-8 12 -6 19q4 10 20 4l164 -62v367h-338l61 -164q6 -16 -2 -19t-20 5l-340 248l340 247q12 8 20 6t2 -20l-61 -164h338v387l-164 -61q-16 -6 -19 2t5 20l248 340l247 -340q7 -12 5 -20t-19 -2l-164 61v-387
h330l-62 164q-5 16 3 20t20 -6l340 -247l-340 -248q-12 -8 -20 -5t-3 19l62 164h-330z" />
    <glyph glyph-name="questiondown" unicode="&#xbf;" horiz-adv-x="1148" 
d="M137 330q1 137 59 212t178 147q120 71 146 133q27 62 27 227h158q0 -209 -41 -290t-201 -179q-88 -52 -127 -104t-39 -142t80 -150t209 -61q201 0 370 158l103 -113q-195 -190 -479 -191q-201 -1 -322 91t-121 262zM754 1331q0 -51 -37 -90t-87 -39t-88 39t-38 90t38 88
t88 37t87 -37t37 -88z" />
    <glyph glyph-name="Agrave" unicode="&#xc0;" horiz-adv-x="1388" 
d="M758 1526h-121l-309 327h219zM940 510l-158 471q-66 186 -88 283q-25 -96 -90 -287l-158 -467h494zM1280 0h-168l-123 365h-592l-125 -365h-163l497 1434h176z" />
    <glyph glyph-name="Aacute" unicode="&#xc1;" horiz-adv-x="1388" 
d="M1059 1853l-309 -327h-121l211 327h219zM940 510l-158 471q-66 186 -88 283q-25 -96 -90 -287l-158 -467h494zM1280 0h-168l-123 365h-592l-125 -365h-163l497 1434h176z" />
    <glyph glyph-name="Acircumflex" unicode="&#xc2;" horiz-adv-x="1388" 
d="M1032 1485h-133l-207 211l-207 -211h-129l252 327h172zM940 510l-158 471q-66 186 -88 283q-25 -96 -90 -287l-158 -467h494zM1280 0h-168l-123 365h-592l-125 -365h-163l497 1434h176z" />
    <glyph glyph-name="Atilde" unicode="&#xc3;" horiz-adv-x="1388" 
d="M1059 1798q1 -130 -59 -198t-146 -68t-161 57t-101 71t-55 15q-63 0 -80 -137h-127q0 129 59 198q59 68 145 68t158 -55t102 -71t58 -17q61 0 80 137h127zM940 510l-158 471q-66 186 -88 283q-25 -96 -90 -287l-158 -467h494zM1280 0h-168l-123 365h-592l-125 -365h-163
l497 1434h176z" />
    <glyph glyph-name="Adieresis" unicode="&#xc4;" horiz-adv-x="1388" 
d="M610 1656q0 -46 -32 -80t-79 -34q-46 0 -80 33t-34 80t34 81t80 34t79 -34q32 -34 32 -80zM1008 1656q0 -46 -33 -80t-80 -34t-80 34t-33 80t34 80t79 34t79 -34t34 -80zM940 510l-158 471q-66 186 -88 283q-25 -96 -90 -287l-158 -467h494zM1280 0h-168l-123 365h-592
l-125 -365h-163l497 1434h176z" />
    <glyph glyph-name="Aring" unicode="&#xc5;" horiz-adv-x="1388" 
d="M940 510l-158 471q-66 186 -88 283q-25 -96 -90 -287l-158 -467h494zM836 1562q0 64 -39 105t-105 41t-104 -41t-39 -105q0 -64 39 -106q38 -41 104 -41t105 41q39 42 39 106zM453 1563q0 100 67 169q68 68 172 68t172 -68t68 -169q0 -145 -125 -213l473 -1350h-168
l-123 365h-592l-125 -365h-163l471 1348q-127 68 -127 215z" />
    <glyph glyph-name="AE" unicode="&#xc6;" horiz-adv-x="2043" 
d="M1030 510v455q0 47 2 143t2 121q-25 -41 -133 -207l-336 -512h465zM1927 0h-897v365h-559l-240 -365h-182l963 1434h884v-146h-714v-450h417v-146h-417v-547h745v-145z" />
    <glyph glyph-name="Ccedilla" unicode="&#xc7;" horiz-adv-x="1286" 
d="M948 -217q0 -178 -243 -178q-129 0 -242 73l39 66q86 -55 188 -55q137 0 137 88q0 68 -65 67q-57 0 -98 -37l-74 29l45 146q-229 31 -369 233q-139 203 -139 513t164 518q164 210 422 210q291 0 456 -229l-127 -97q-72 96 -146 138t-187 43q-184 0 -303 -166t-119 -426
t121 -428t303 -168q209 0 354 188l111 -96q-168 -229 -451 -238l-27 -81q44 28 104 28t103 -35t43 -106z" />
    <glyph glyph-name="Egrave" unicode="&#xc8;" horiz-adv-x="1202" 
d="M731 1526h-121l-309 327h219zM1085 0h-897v1434h867v-146h-707v-450h410v-146h-410v-547h737v-145z" />
    <glyph glyph-name="Eacute" unicode="&#xc9;" horiz-adv-x="1202" 
d="M952 1853l-309 -327h-121l211 327h219zM1085 0h-897v1434h867v-146h-707v-450h410v-146h-410v-547h737v-145z" />
    <glyph glyph-name="Ecircumflex" unicode="&#xca;" horiz-adv-x="1202" 
d="M958 1526h-133l-207 211l-206 -211h-129l252 327h172zM1085 0h-897v1434h867v-146h-707v-450h410v-146h-410v-547h737v-145z" />
    <glyph glyph-name="Edieresis" unicode="&#xcb;" horiz-adv-x="1202" 
d="M537 1656q0 -46 -33 -80t-79 -34t-80 33t-34 80t34 81t80 34t79 -34t33 -80zM934 1656q0 -46 -33 -80t-80 -34t-80 34t-33 80t34 80t79 34t79 -34t34 -80zM1085 0h-897v1434h867v-146h-707v-450h410v-146h-410v-547h737v-145z" />
    <glyph glyph-name="Igrave" unicode="&#xcc;" horiz-adv-x="557" 
d="M352 1526h-121l-309 327h219zM358 0h-159v1434h159v-1434z" />
    <glyph glyph-name="Iacute" unicode="&#xcd;" horiz-adv-x="557" 
d="M637 1853l-309 -327h-121l211 327h219zM358 0h-159v1434h159v-1434z" />
    <glyph glyph-name="Icircumflex" unicode="&#xce;" horiz-adv-x="557" 
d="M610 1516h-133l-207 210l-207 -210h-129l252 327h172zM358 0h-159v1434h159v-1434z" />
    <glyph glyph-name="Idieresis" unicode="&#xcf;" horiz-adv-x="557" 
d="M79 1778q47 0 79 -34t32 -80t-32 -80t-79 -34q-46 0 -80 33t-34 80t34 81t80 34zM588 1664q0 -46 -34 -80t-79 -34t-79 34t-34 80t34 80t79 34t79 -34t34 -80zM358 0h-159v1434h159v-1434z" />
    <glyph glyph-name="Eth" unicode="&#xd0;" horiz-adv-x="1396" 
d="M1081 721q0 275 -130 421t-376 146h-210v-467h290v-143h-290v-533h215q501 1 501 576zM588 1434q297 0 475 -176t178 -540q0 -362 -187 -540t-495 -178h-350v678h-127v143h127v613h379z" />
    <glyph glyph-name="Ntilde" unicode="&#xd1;" horiz-adv-x="1409" 
d="M1079 1806q0 -130 -59 -198q-60 -68 -146 -68t-160 57t-101 71q-26 14 -56 15q-63 0 -80 -137h-127q0 129 60 198q60 68 145 68q86 0 158 -55q71 -55 101 -71t58 -17q61 0 80 137h127zM1221 0h-150l-627 981q-61 98 -102 180v-1161h-154v1434h156l621 -1000
q61 -98 102 -180v1180h154v-1434z" />
    <glyph glyph-name="Ograve" unicode="&#xd2;" horiz-adv-x="1443" 
d="M803 1526h-121l-309 327h219zM1157 715q0 266 -125 431t-314 165t-310 -163t-121 -429t124 -431t313 -165t311 163t122 429zM1317 719q0 -326 -166 -534t-432 -208t-429 206t-163 532q0 325 165 533t431 208t430 -206t164 -531z" />
    <glyph glyph-name="Oacute" unicode="&#xd3;" horiz-adv-x="1443" 
d="M1065 1853l-309 -327h-121l211 327h219zM1157 715q0 266 -125 431t-314 165t-310 -163t-121 -429t124 -431t313 -165t311 163t122 429zM1317 719q0 -326 -166 -534t-432 -208t-429 206t-163 532q0 325 165 533t431 208t430 -206t164 -531z" />
    <glyph glyph-name="Ocircumflex" unicode="&#xd4;" horiz-adv-x="1443" 
d="M1057 1516h-133l-207 210l-207 -210h-129l252 327h172zM1157 715q0 266 -125 431t-314 165t-310 -163t-121 -429t124 -431t313 -165t311 163t122 429zM1317 719q0 -326 -166 -534t-432 -208t-429 206t-163 532q0 325 165 533t431 208t430 -206t164 -531z" />
    <glyph glyph-name="Otilde" unicode="&#xd5;" horiz-adv-x="1443" 
d="M1083 1798q0 -130 -59 -198q-60 -68 -146 -68t-160 57t-101 71q-26 14 -56 15q-63 0 -80 -137h-127q0 129 60 198q60 68 145 68q86 0 158 -55q71 -55 101 -71t59 -17q61 0 79 137h127zM1157 715q0 266 -125 431t-314 165t-310 -163t-121 -429t124 -431t313 -165t311 163
t122 429zM1317 719q0 -326 -166 -534t-432 -208t-429 206t-163 532q0 325 165 533t431 208t430 -206t164 -531z" />
    <glyph glyph-name="Odieresis" unicode="&#xd6;" horiz-adv-x="1443" 
d="M635 1656q0 -46 -33 -80t-79 -34t-80 33t-33 80q0 47 33 81q34 34 80 34t79 -34t33 -80zM1032 1656q0 -46 -33 -80t-79 -34t-80 34q-33 34 -33 80t34 80t79 34q44 0 78 -34t34 -80zM1157 715q0 266 -125 431t-314 165t-310 -163t-121 -429t124 -431t313 -165t311 163
t122 429zM1317 719q0 -326 -166 -534t-432 -208t-429 206t-163 532q0 325 165 533t431 208t430 -206t164 -531z" />
    <glyph glyph-name="multiply" unicode="&#xd7;" 
d="M819 637v-367l164 62q15 6 19 -2t-5 -21l-247 -340l-248 340q-8 12 -6 19q4 10 20 4l164 -62v367h-338l61 -164q6 -16 -2 -19t-20 5l-340 248l340 247q12 8 20 6t2 -20l-61 -164h338v387l-164 -61q-16 -6 -19 2t5 20l248 340l247 -340q7 -12 5 -20t-19 -2l-164 61v-387
h330l-62 164q-5 16 3 20t20 -6l340 -247l-340 -248q-12 -8 -20 -5t-3 19l62 164h-330z" />
    <glyph glyph-name="Oslash" unicode="&#xd8;" horiz-adv-x="1443" 
d="M1163 715q0 311 -168 483l-469 -1026q88 -55 199 -55q190 0 314 165t124 433zM717 1317q-189 0 -313 -164q-124 -165 -124 -445t146 -448l463 1016q-82 41 -172 41zM1317 719q0 -326 -166 -534t-432 -208q-141 0 -254 60l-64 -139h-141l98 213q-231 205 -231 604
q0 325 165 533t431 208q121 0 227 -47l58 127h141l-88 -195q121 -93 189 -255t67 -367z" />
    <glyph glyph-name="Ugrave" unicode="&#xd9;" horiz-adv-x="1388" 
d="M776 1495h-121l-309 328h219zM1210 586q0 -608 -514 -609q-256 0 -387 153t-131 452v852h160v-848q0 -463 367 -463q182 -1 264 111t82 348v852h159v-848z" />
    <glyph glyph-name="Uacute" unicode="&#xda;" horiz-adv-x="1388" 
d="M1038 1823l-309 -328h-121l211 328h219zM1210 586q0 -608 -514 -609q-256 0 -387 153t-131 452v852h160v-848q0 -463 367 -463q182 -1 264 111t82 348v852h159v-848z" />
    <glyph glyph-name="Ucircumflex" unicode="&#xdb;" horiz-adv-x="1388" 
d="M1032 1526h-133l-207 211l-207 -211h-129l252 327h172zM1210 586q0 -608 -514 -609q-256 0 -387 153t-131 452v852h160v-848q0 -463 367 -463q182 -1 264 111t82 348v852h159v-848z" />
    <glyph glyph-name="Udieresis" unicode="&#xdc;" horiz-adv-x="1388" 
d="M608 1656q0 -46 -33 -80t-79 -34t-79 33q-34 33 -34 80t34 81t80 34q47 0 79 -34t32 -80zM1006 1656q0 -46 -34 -80t-79 -34t-79 34t-34 80t34 80t79 34t79 -34t34 -80zM1210 586q0 -608 -514 -609q-256 0 -387 153t-131 452v852h160v-848q0 -463 367 -463
q182 -1 264 111t82 348v852h159v-848z" />
    <glyph glyph-name="Yacute" unicode="&#xdd;" horiz-adv-x="1335" 
d="M1022 1815l-309 -328h-121l211 328h219zM748 0h-160v567l-492 867h183l229 -412q106 -195 162 -307q70 141 161 307l230 412h178l-491 -865v-569z" />
    <glyph glyph-name="Thorn" unicode="&#xde;" horiz-adv-x="1265" 
d="M1022 741q0 139 -78 214t-225 75h-371v-579h350q324 -1 324 290zM1182 748q0 -209 -133 -326t-353 -117h-348v-305h-160v1434h160v-258h377q205 0 331 -110t126 -318z" />
    <glyph glyph-name="germandbls" unicode="&#xdf;" horiz-adv-x="1171" 
d="M1059 463q-1 -239 -147 -351t-384 -112h-30v135h37q371 0 370 314q0 151 -104 225t-262 74h-41v133h47q121 0 185 61q64 62 65 174q0 112 -65 174t-171 64q-106 0 -171 -71t-64 -200v-1392l-154 -86v1452q0 205 105 317t283 113t284 -103t106 -260q0 -213 -186 -297
q125 -31 211 -119t86 -245z" />
    <glyph glyph-name="agrave" unicode="&#xe0;" horiz-adv-x="1103" 
d="M653 1219h-121l-309 327h219zM258 324q0 -108 58 -165q58 -56 161 -57q192 0 309 162v217q-111 61 -253 61q-143 0 -209 -54q-66 -56 -66 -164zM940 0h-154v131q-141 -154 -335 -154q-145 0 -245 82q-100 81 -100 257t119 263t284 87t277 -62v127q0 238 -233 238
q-152 0 -293 -82l-57 125q158 86 360 86q377 0 377 -348v-750z" />
    <glyph glyph-name="aacute" unicode="&#xe1;" horiz-adv-x="1103" 
d="M895 1546l-309 -327h-121l211 327h219zM258 324q0 -108 58 -165q58 -56 161 -57q192 0 309 162v217q-111 61 -253 61q-143 0 -209 -54q-66 -56 -66 -164zM940 0h-154v131q-141 -154 -335 -154q-145 0 -245 82q-100 81 -100 257t119 263t284 87t277 -62v127
q0 238 -233 238q-152 0 -293 -82l-57 125q158 86 360 86q377 0 377 -348v-750z" />
    <glyph glyph-name="acircumflex" unicode="&#xe2;" horiz-adv-x="1103" 
d="M893 1208h-133l-207 211l-207 -211h-129l252 328h172zM258 324q0 -108 58 -165q58 -56 161 -57q192 0 309 162v217q-111 61 -253 61q-143 0 -209 -54q-66 -56 -66 -164zM940 0h-154v131q-141 -154 -335 -154q-145 0 -245 82q-100 81 -100 257t119 263t284 87t277 -62v127
q0 238 -233 238q-152 0 -293 -82l-57 125q158 86 360 86q377 0 377 -348v-750z" />
    <glyph glyph-name="atilde" unicode="&#xe3;" horiz-adv-x="1103" 
d="M918 1491q0 -129 -60 -198t-145 -69q-86 0 -161 58q-74 58 -100 72t-57 14q-63 0 -80 -137h-127q0 129 60 197t145 69q86 0 158 -55q71 -56 101 -72t59 -16q61 0 80 137h127zM258 324q0 -108 58 -165q58 -56 161 -57q192 0 309 162v217q-111 61 -253 61q-143 0 -209 -54
q-66 -56 -66 -164zM940 0h-154v131q-141 -154 -335 -154q-145 0 -245 82q-100 81 -100 257t119 263t284 87t277 -62v127q0 238 -233 238q-152 0 -293 -82l-57 125q158 86 360 86q377 0 377 -348v-750z" />
    <glyph glyph-name="adieresis" unicode="&#xe4;" horiz-adv-x="1103" 
d="M467 1338q0 -46 -33 -80t-79 -34t-80 34q-34 32 -33 79q0 47 33 81q34 34 80 34t79 -34t33 -80zM864 1337q0 -47 -33 -80t-79 -33t-80 34q-33 32 -33 79t34 81t79 34q44 0 78 -34t34 -81zM258 324q0 -108 58 -165q58 -56 161 -57q192 0 309 162v217q-111 61 -253 61
q-143 0 -209 -54q-66 -56 -66 -164zM940 0h-154v131q-141 -154 -335 -154q-145 0 -245 82q-100 81 -100 257t119 263t284 87t277 -62v127q0 238 -233 238q-152 0 -293 -82l-57 125q158 86 360 86q377 0 377 -348v-750z" />
    <glyph glyph-name="aring" unicode="&#xe5;" horiz-adv-x="1103" 
d="M698 1464q0 64 -39 106t-105 42t-104 -41t-38 -106t39 -105t105 -41q66 1 104 41t38 104zM795 1466q0 -100 -69 -170t-171 -70t-171 70t-69 170t68 169t172 69t172 -69t68 -169zM258 324q0 -108 58 -165q58 -56 161 -57q192 0 309 162v217q-111 61 -253 61
q-143 0 -209 -54q-66 -56 -66 -164zM940 0h-154v131q-141 -154 -335 -154q-145 0 -245 82q-100 81 -100 257t119 263t284 87t277 -62v127q0 238 -233 238q-152 0 -293 -82l-57 125q158 86 360 86q377 0 377 -348v-750z" />
    <glyph glyph-name="ae" unicode="&#xe6;" horiz-adv-x="1716" 
d="M258 332q0 -229 205 -230q184 1 323 183q-27 82 -32 198q-109 59 -258 60q-238 0 -238 -211zM1456 610q-20 354 -276 355q-248 0 -275 -355h551zM1599 569q0 -47 -6 -84h-688q10 -176 83 -275t202 -99q86 1 141 23t142 79l71 -111q-110 -70 -184 -98t-186 -27
q-215 0 -332 187q-88 -100 -179 -144t-229 -43q-138 0 -233 82q-95 83 -95 259t113 262t269 86t270 -62v127q0 123 -51 180t-178 57t-269 -81l-57 125q158 86 346 86q274 0 313 -195q100 195 312 195t319 -144q106 -144 106 -385z" />
    <glyph glyph-name="ccedilla" unicode="&#xe7;" horiz-adv-x="1013" 
d="M569 965q-133 0 -217 -112q-84 -113 -84 -311t81 -315t216 -117t254 115l92 -98q-145 -150 -344 -150l-26 -81q45 28 104 28t103 -35t43 -106q0 -178 -244 -178q-129 0 -242 73l39 66q86 -55 188 -55q137 0 138 88q0 68 -66 67q-59 0 -98 -37l-74 29l47 150
q-160 31 -263 172t-103 374q0 279 137 422q136 144 328 144t337 -127l-92 -115q-121 109 -254 109z" />
    <glyph glyph-name="egrave" unicode="&#xe8;" horiz-adv-x="1105" 
d="M653 1219h-121l-309 327h219zM846 610q-10 164 -83 259t-202 95t-205 -88q-76 -89 -90 -266h580zM989 569q0 -47 -6 -84h-717q10 -174 89 -274t210 -100q87 -1 151 23t146 79l72 -111q-106 -68 -188 -96t-179 -29q-179 0 -309 124q-66 63 -106 177t-39 265q0 251 125 403
q124 152 324 152t314 -146t113 -383z" />
    <glyph glyph-name="eacute" unicode="&#xe9;" horiz-adv-x="1105" 
d="M895 1546l-309 -327h-121l211 327h219zM846 610q-10 164 -83 259t-202 95t-205 -88q-76 -89 -90 -266h580zM989 569q0 -47 -6 -84h-717q10 -174 89 -274t210 -100q87 -1 151 23t146 79l72 -111q-106 -68 -188 -96t-179 -29q-179 0 -309 124q-66 63 -106 177t-39 265
q0 251 125 403q124 152 324 152t314 -146t113 -383z" />
    <glyph glyph-name="ecircumflex" unicode="&#xea;" horiz-adv-x="1105" 
d="M893 1198h-133l-207 211l-207 -211h-129l252 328h172zM846 610q-10 164 -83 259t-202 95t-205 -88q-76 -89 -90 -266h580zM989 569q0 -47 -6 -84h-717q10 -174 89 -274t210 -100q87 -1 151 23t146 79l72 -111q-106 -68 -188 -96t-179 -29q-179 0 -309 124
q-66 63 -106 177t-39 265q0 251 125 403q124 152 324 152t314 -146t113 -383z" />
    <glyph glyph-name="edieresis" unicode="&#xeb;" horiz-adv-x="1105" 
d="M469 1338q0 -46 -33 -80t-79 -34q-45 0 -79 34q-34 32 -34 79t34 81t80 34t78 -34q33 -34 33 -80zM866 1337q0 -47 -34 -80t-78 -33q-45 0 -79 34q-34 32 -34 79t34 81t79 34q44 0 78 -34t34 -81zM846 610q-10 164 -83 259t-202 95t-205 -88q-76 -89 -90 -266h580z
M989 569q0 -47 -6 -84h-717q10 -174 89 -274t210 -100q87 -1 151 23t146 79l72 -111q-106 -68 -188 -96t-179 -29q-179 0 -309 124q-66 63 -106 177t-39 265q0 251 125 403q124 152 324 152t314 -146t113 -383z" />
    <glyph glyph-name="igrave" unicode="&#xec;" horiz-adv-x="514" 
d="M324 1219h-121l-309 327h219zM334 0h-154v1075h154v-1075z" />
    <glyph glyph-name="iacute" unicode="&#xed;" horiz-adv-x="514" 
d="M621 1546l-310 -327h-121l211 327h220zM334 0h-154v1075h154v-1075z" />
    <glyph glyph-name="icircumflex" unicode="&#xee;" horiz-adv-x="514" 
d="M594 1188h-133l-207 211l-207 -211h-129l252 328h172zM334 0h-154v1075h154v-1075z" />
    <glyph glyph-name="idieresis" unicode="&#xef;" horiz-adv-x="514" 
d="M170 1328q0 -46 -33 -80t-79 -34t-80 33t-33 80q0 47 33 81q34 34 80 34t79 -34t33 -80zM455 1442q45 0 79 -34t33 -80q1 -46 -33 -80t-79 -34t-79 34t-34 80t34 80t79 34zM334 0h-154v1075h154v-1075z" />
    <glyph glyph-name="eth" unicode="&#xf0;" horiz-adv-x="1159" 
d="M893 487q0 183 -89 275q-90 92 -234 92t-223 -96t-79 -276t86 -275q86 -96 226 -96t226 96q87 96 87 280zM1047 610q0 -322 -122 -478q-123 -156 -335 -155t-344 135t-133 370q0 236 127 370q127 135 303 135q244 0 364 -182q-61 272 -227 401l-115 -129l-104 88l98 111
q-90 37 -184 45v135q150 -10 276 -76l70 76l104 -88l-59 -65q281 -230 281 -693z" />
    <glyph glyph-name="ntilde" unicode="&#xf1;" horiz-adv-x="1161" 
d="M938 1491q0 -129 -59 -198t-145 -69t-162 58q-74 58 -100 72t-56 14q-63 0 -80 -137h-127q0 129 59 197q60 68 146 69q86 0 158 -55q72 -56 101 -72q30 -16 58 -16q61 0 80 137h127zM844 629q0 336 -249 336q-124 0 -198 -84t-73 -252v-629h-154v1075h154v-131
q104 154 290 154t284 -109q99 -109 99 -334v-655h-153v629z" />
    <glyph glyph-name="ograve" unicode="&#xf2;" horiz-adv-x="1159" 
d="M670 1219h-121l-309 327h219zM893 541q0 207 -85 315t-228 109q-144 0 -228 -109q-84 -110 -84 -316t84 -318t228 -112t228 112q85 112 85 319zM1047 545q1 -264 -133 -416t-339 -152q-205 -1 -333 147t-129 412q0 264 133 413t338 149t334 -144t129 -409z" />
    <glyph glyph-name="oacute" unicode="&#xf3;" horiz-adv-x="1159" 
d="M911 1546l-309 -327h-121l211 327h219zM893 541q0 207 -85 315t-228 109q-144 0 -228 -109q-84 -110 -84 -316t84 -318t228 -112t228 112q85 112 85 319zM1047 545q1 -264 -133 -416t-339 -152q-205 -1 -333 147t-129 412q0 264 133 413t338 149t334 -144t129 -409z" />
    <glyph glyph-name="ocircumflex" unicode="&#xf4;" horiz-adv-x="1159" 
d="M915 1198h-133l-207 211l-206 -211h-129l252 328h172zM893 541q0 207 -85 315t-228 109q-144 0 -228 -109q-84 -110 -84 -316t84 -318t228 -112t228 112q85 112 85 319zM1047 545q1 -264 -133 -416t-339 -152q-205 -1 -333 147t-129 412q0 264 133 413t338 149t334 -144
t129 -409z" />
    <glyph glyph-name="otilde" unicode="&#xf5;" horiz-adv-x="1159" 
d="M942 1491q0 -129 -59 -198t-145 -69t-162 58q-74 58 -100 72t-56 14q-63 0 -80 -137h-127q0 129 59 197q60 68 146 69q86 0 158 -55q72 -56 101 -72q30 -16 58 -16q61 0 80 137h127zM893 541q0 207 -85 315t-228 109q-144 0 -228 -109q-84 -110 -84 -316t84 -318
t228 -112t228 112q85 112 85 319zM1047 545q1 -264 -133 -416t-339 -152q-205 -1 -333 147t-129 412q0 264 133 413t338 149t334 -144t129 -409z" />
    <glyph glyph-name="odieresis" unicode="&#xf6;" horiz-adv-x="1159" 
d="M492 1328q0 -46 -33 -80t-79 -34t-80 33t-34 80t34 81t80 34t79 -34t33 -80zM889 1328q0 -46 -33 -80t-80 -34t-80 34q-32 34 -32 80t33 80q34 34 79 34t79 -34t34 -80zM893 541q0 207 -85 315t-228 109q-144 0 -228 -109q-84 -110 -84 -316t84 -318t228 -112t228 112
q85 112 85 319zM1047 545q1 -264 -133 -416t-339 -152q-205 -1 -333 147t-129 412q0 264 133 413t338 149t334 -144t129 -409z" />
    <glyph glyph-name="divide" unicode="&#xf7;" 
d="M819 637v-367l164 62q15 6 19 -2t-5 -21l-247 -340l-248 340q-8 12 -6 19q4 10 20 4l164 -62v367h-338l61 -164q6 -16 -2 -19t-20 5l-340 248l340 247q12 8 20 6t2 -20l-61 -164h338v387l-164 -61q-16 -6 -19 2t5 20l248 340l247 -340q7 -12 5 -20t-19 -2l-164 61v-387
h330l-62 164q-5 16 3 20t20 -6l340 -247l-340 -248q-12 -8 -20 -5t-3 19l62 164h-330z" />
    <glyph glyph-name="oslash" unicode="&#xf8;" horiz-adv-x="1159" 
d="M897 542q0 210 -90 322l-350 -733q55 -25 123 -25q145 0 231 113t86 323zM580 969q-144 0 -230 -110q-86 -111 -86 -323t94 -329l351 735q-55 27 -129 27zM1047 545q1 -264 -133 -416t-339 -152q-98 0 -176 33l-53 -112h-135l84 176q-182 145 -182 463q0 264 133 412
t338 149q96 0 182 -35l55 115h135l-86 -179q177 -145 177 -454z" />
    <glyph glyph-name="ugrave" unicode="&#xf9;" horiz-adv-x="1161" 
d="M651 1219h-121l-309 327h219zM317 446q0 -335 249 -335q124 0 198 84t74 251v629h153v-1075h-153v131q-104 -154 -290 -154t-285 109t-99 334v655h153v-629z" />
    <glyph glyph-name="uacute" unicode="&#xfa;" horiz-adv-x="1161" 
d="M924 1546l-310 -327h-120l211 327h219zM317 446q0 -335 249 -335q124 0 198 84t74 251v629h153v-1075h-153v131q-104 -154 -290 -154t-285 109t-99 334v655h153v-629z" />
    <glyph glyph-name="ucircumflex" unicode="&#xfb;" horiz-adv-x="1161" 
d="M918 1219h-134l-206 211l-207 -211h-129l252 327h172zM317 446q0 -335 249 -335q124 0 198 84t74 251v629h153v-1075h-153v131q-104 -154 -290 -154t-285 109t-99 334v655h153v-629z" />
    <glyph glyph-name="udieresis" unicode="&#xfc;" horiz-adv-x="1161" 
d="M268 1348q0 46 34 80t80 34t79 -34t33 -79q0 -46 -33 -80t-79 -34t-80 33t-34 80zM778 1462q45 0 79 -34t34 -79q0 -46 -34 -80t-79 -34t-79 34q-33 34 -33 80q0 45 34 79t78 34zM317 446q0 -335 249 -335q124 0 198 84t74 251v629h153v-1075h-153v131
q-104 -154 -290 -154t-285 109t-99 334v655h153v-629z" />
    <glyph glyph-name="yacute" unicode="&#xfd;" horiz-adv-x="1087" 
d="M891 1526l-309 -328h-121l211 328h219zM1006 1075l-535 -1454h-154l148 391l-383 1063h162l299 -891l301 891h162z" />
    <glyph glyph-name="thorn" unicode="&#xfe;" horiz-adv-x="1144" 
d="M881 553q0 201 -72 306t-201 106q-160 0 -284 -156v-537q48 -72 124 -116t166 -45q267 0 267 442zM1032 553q0 -272 -114 -424t-291 -152q-176 0 -303 144v-430l-154 -86v1802l154 86v-549q141 154 318 154t284 -136q106 -137 106 -409z" />
    <glyph glyph-name="ydieresis" unicode="&#xff;" horiz-adv-x="1087" 
d="M459 1328q0 -46 -33 -80t-79 -34t-80 33t-34 80t34 81t80 34t79 -34t33 -80zM856 1328q0 -46 -33 -80t-80 -34t-79 34t-33 80q0 46 34 80q35 34 79 34t78 -34t34 -80zM1006 1075l-535 -1454h-154l148 391l-383 1063h162l299 -891l301 891h162z" />
    <glyph glyph-name="dotlessi" unicode="&#x131;" horiz-adv-x="514" 
d="M334 0h-154v1075h154v-1075z" />
    <glyph glyph-name="Lslash" unicode="&#x141;" horiz-adv-x="1198" 
d="M1077 0h-868v487l-127 -110v182l127 111v764h160v-639l329 280v-182l-329 -281v-467h708v-145z" />
    <glyph glyph-name="lslash" unicode="&#x142;" horiz-adv-x="534" 
d="M344 0h-154v524l-100 -88v187l100 88v696l154 86v-662l100 91v-187l-100 -88v-647z" />
    <glyph glyph-name="OE" unicode="&#x152;" horiz-adv-x="2136" 
d="M1145 715q0 268 -122 432t-311 164q-190 0 -308 -162t-118 -430t122 -432q121 -164 310 -164t308 162t119 430zM2019 0h-874v238q-74 -127 -171 -194t-259 -67q-264 0 -426 207t-162 533q0 327 162 533q163 206 437 206t419 -254v232h844v-146h-701v-450h404v-146h-404
v-547h731v-145z" />
    <glyph glyph-name="oe" unicode="&#x153;" horiz-adv-x="1835" 
d="M872 540q0 206 -82 316t-220 109q-138 0 -220 -109q-82 -110 -82 -316t83 -318t219 -112t220 112q82 112 82 318zM1575 610q-10 164 -81 259t-194 95q-122 0 -196 -90t-88 -264h559zM1718 569q0 -47 -6 -84h-696q10 -174 87 -274t202 -100q82 -1 143 23t143 79l72 -111
q-106 -68 -186 -96t-193 -29q-113 0 -209 74t-137 182q-47 -115 -141 -185t-232 -71q-195 -1 -323 147t-129 412q0 264 132 412q132 150 328 150q133 0 229 -72t140 -182q45 114 137 184t217 70q198 0 310 -146t112 -383z" />
    <glyph glyph-name="Scaron" unicode="&#x160;" horiz-adv-x="1212" 
d="M936 1872l-252 -328h-172l-252 328h133l207 -211l207 211h129zM1069 370q0 -167 -128 -280t-347 -113q-141 1 -267 55t-214 144l106 119q178 -172 381 -172q143 1 226 67t83 172t-73 174q-74 68 -288 144t-304 166t-90 252t122 260q123 98 326 98q244 0 436 -153
l-102 -125q-162 133 -344 133q-139 1 -209 -59t-70 -153t67 -153t289 -141q222 -80 311 -174t89 -261z" />
    <glyph glyph-name="scaron" unicode="&#x161;" horiz-adv-x="956" 
d="M805 1546l-252 -327h-172l-252 327h133l207 -211l207 211h129zM836 281q0 -150 -108 -227t-261 -77q-207 0 -379 138l90 112q135 -119 293 -118q217 0 217 165q0 66 -54 111t-213 114t-225 135t-67 190q0 122 94 198t242 76q205 0 344 -115l-86 -113q-123 96 -268 97
q-84 0 -131 -37q-48 -38 -48 -100t48 -102t164 -92q118 -52 164 -78q133 -75 164 -158q20 -49 20 -119z" />
    <glyph glyph-name="Ydieresis" unicode="&#x178;" horiz-adv-x="1335" 
d="M580 1635q0 -46 -33 -80q-33 -33 -79 -33t-80 32t-34 80q0 47 34 81t80 34t79 -34t33 -80zM977 1635q0 -46 -34 -80q-34 -33 -79 -33t-79 34q-33 34 -33 79q0 46 33 80q34 34 79 34t79 -34t34 -80zM748 0h-160v567l-492 867h183l229 -412q106 -195 162 -307
q70 141 161 307l230 412h178l-491 -865v-569z" />
    <glyph glyph-name="Zcaron" unicode="&#x17d;" horiz-adv-x="1286" 
d="M985 1853l-252 -327h-172l-252 327h133l207 -211l207 211h129zM1149 0h-1024v139l678 924q76 104 174 231h-811v140h983v-140l-678 -923q-76 -104 -174 -232h852v-139z" />
    <glyph glyph-name="zcaron" unicode="&#x17e;" horiz-adv-x="1007" 
d="M850 1546l-252 -327h-172l-252 327h133l207 -211l207 211h129zM872 0h-761v113l587 833h-540v129h714v-112l-587 -834h587v-129z" />
    <glyph glyph-name="florin" unicode="&#x192;" horiz-adv-x="804" 
d="M543 1317q-125 0 -125 -119v-123h219v-129h-219v-1255l-154 -86v1341h-147v129h147v117q0 136 74 200t181 64t163 -18v-146q-51 25 -139 25z" />
    <glyph glyph-name="circumflex" unicode="&#x2c6;" horiz-adv-x="1024" 
d="M850 1219h-133l-207 211l-207 -211h-129l252 327h172z" />
    <glyph glyph-name="caron" unicode="&#x2c7;" horiz-adv-x="1024" 
d="M850 1546l-252 -327h-172l-252 327h133l207 -211l207 211h129z" />
    <glyph glyph-name="breve" unicode="&#x2d8;" horiz-adv-x="1024" 
d="M514 1219q-154 0 -247 88t-101 239h127q14 -213 218 -213t222 213h125q-8 -154 -99 -240t-245 -87z" />
    <glyph glyph-name="dotaccent" unicode="&#x2d9;" horiz-adv-x="1024" 
d="M512 1462q45 0 79 -34t34 -79q0 -46 -34 -80t-79 -34t-79 34t-34 80q0 45 34 79t79 34z" />
    <glyph glyph-name="ring" unicode="&#x2da;" horiz-adv-x="1024" 
d="M655 1464q0 64 -39 106q-38 42 -104 42t-104 -41t-39 -106q0 -65 39 -105q38 -40 104 -41q66 1 104 41t39 104zM752 1466q0 -100 -69 -170t-171 -70t-171 70t-69 170t68 169t172 69t172 -69t68 -169z" />
    <glyph glyph-name="ogonek" unicode="&#x2db;" horiz-adv-x="1024" 
d="M512 -395q-100 0 -150 45q-49 45 -49 125q0 115 172 225h107q-80 -55 -116 -102q-36 -48 -36 -98t26 -76t90 -25q64 0 169 45l31 -59q-144 -80 -244 -80z" />
    <glyph glyph-name="tilde" unicode="&#x2dc;" horiz-adv-x="1024" 
d="M877 1491q1 -129 -59 -198t-146 -69t-161 58t-101 72t-56 14q-63 0 -80 -137h-127q-1 129 59 197t146 69q86 0 158 -55q72 -56 102 -72t58 -16q61 0 80 137h127z" />
    <glyph glyph-name="hungarumlaut" unicode="&#x2dd;" horiz-adv-x="1024" 
d="M547 1546l-281 -327h-114l190 327h205zM909 1546l-280 -327h-115l191 327h204z" />
    <glyph glyph-name="Delta" unicode="&#x394;" horiz-adv-x="1290" 
d="M1178 635h-809l61 -154q6 -10 -4 -17t-25 3l-360 240l360 239q15 10 25 3t4 -17l-61 -154h809v-143z" />
    <glyph glyph-name="Delta" unicode="&#x2206;" horiz-adv-x="1290" 
d="M1178 635h-809l61 -154q6 -10 -4 -17t-25 3l-360 240l360 239q15 10 25 3t4 -17l-61 -154h809v-143z" />
    <glyph glyph-name="Omega" unicode="&#x3a9;" horiz-adv-x="749" 
d="M446 0h-143v1137l-153 -62q-10 -6 -18 4t3 25l240 360l239 -360q10 -15 3 -25t-17 -4l-154 62v-1137z" />
    <glyph glyph-name="Omega" unicode="&#x2126;" horiz-adv-x="749" 
d="M446 0h-143v1137l-153 -62q-10 -6 -18 4t3 25l240 360l239 -360q10 -15 3 -25t-17 -4l-154 62v-1137z" />
    <glyph glyph-name="pi" unicode="&#x3c0;" horiz-adv-x="1712" 
d="M1094 873q0 153 -170 153h-197v-305h184q183 -1 183 152zM932 1122q120 0 194 -64t74 -184q0 -122 -78 -188t-207 -65h-188v-316h-109v817h314zM1495 717q0 283 -182 464q-183 181 -457 181t-456 -181t-183 -464q0 -283 182 -464q183 -181 457 -181t457 181
q182 181 182 464zM1595 717q0 -328 -210 -534t-529 -206t-529 206t-210 534q0 327 210 533t529 206t529 -206t210 -533z" />
    <glyph glyph-name="endash" unicode="&#x2013;" horiz-adv-x="864" 
d="M760 676h-656v145h656v-145z" />
    <glyph glyph-name="emdash" unicode="&#x2014;" horiz-adv-x="1187" 
d="M1083 676h-979v145h979v-145z" />
    <glyph glyph-name="quoteleft" unicode="&#x2018;" horiz-adv-x="516" 
d="M362 1434l-30 -457h-209l133 457h106z" />
    <glyph glyph-name="quoteright" unicode="&#x2019;" horiz-adv-x="516" 
d="M393 1434l-133 -457h-106l30 457h209z" />
    <glyph glyph-name="quotesinglbase" unicode="&#x201a;" horiz-adv-x="516" 
d="M393 236l-133 -457h-106l30 457h209z" />
    <glyph glyph-name="quotedblleft" unicode="&#x201c;" horiz-adv-x="960" 
d="M362 1434l-30 -457h-209l133 457h106zM807 1434l-31 -457h-209l133 457h107z" />
    <glyph glyph-name="quotedblright" unicode="&#x201d;" horiz-adv-x="960" 
d="M393 1434l-133 -457h-106l30 457h209zM838 1434l-133 -457h-107l31 457h209z" />
    <glyph glyph-name="quotedblbase" unicode="&#x201e;" horiz-adv-x="960" 
d="M393 236l-133 -457h-106l30 457h209zM838 236l-133 -457h-107l31 457h209z" />
    <glyph glyph-name="dagger" unicode="&#x2020;" horiz-adv-x="1173" 
d="M1061 815h-404v-1020h-141v1020h-403v135h403v484h141v-484h404v-135z" />
    <glyph glyph-name="daggerdbl" unicode="&#x2021;" horiz-adv-x="1173" 
d="M1061 279h-404v-484h-141v484h-403v133h403v405h-403v133h403v484h141v-484h404v-133h-404v-405h404v-133z" />
    <glyph glyph-name="bullet" unicode="&#x2022;" horiz-adv-x="765" 
d="M602 750q0 -90 -64 -155t-155 -65q-90 0 -155 65t-64 155q0 90 64 156t155 67q91 -1 155 -67t64 -156z" />
    <glyph glyph-name="ellipsis" unicode="&#x2026;" horiz-adv-x="1474" 
d="M377 109q0 -53 -39 -93t-92 -39q-53 0 -92 39q-39 38 -39 92t39 95t91 41t92 -41t40 -94zM868 109q0 -53 -39 -93t-92 -39q-53 0 -92 39q-39 38 -39 92t39 95t91 41t92 -41t40 -94zM1360 109q0 -53 -39 -93t-92 -39q-53 0 -92 39q-39 38 -39 92t39 95t91 41t92 -41
t40 -94z" />
    <glyph glyph-name="perthousand" unicode="&#x2030;" horiz-adv-x="2754" 
d="M1325 424q0 -144 52 -234q51 -90 139 -90t140 94t52 231q0 138 -52 229t-140 91t-140 -89t-51 -232zM2138 424q0 -144 52 -234t140 -90t139 94q52 94 52 231q0 138 -52 229t-140 91q-87 0 -139 -89t-52 -232zM264 1012q0 -144 52 -234t140 -90t139 94q52 94 52 231
q0 138 -52 229t-140 91q-87 0 -139 -89t-52 -232zM1513 -23q-149 0 -239 122t-90 322q0 199 91 323t244 124t241 -122t89 -320q0 -199 -93 -324t-243 -125zM1997 421q0 199 91 323t244 124q154 0 242 -122t88 -320q0 -199 -93 -324t-243 -125t-239 122q-90 122 -90 322z
M1505 1434l-891 -1434h-149l891 1434h149zM123 1009q0 199 91 323t244 124q154 0 242 -122t88 -320q0 -199 -93 -324t-243 -125t-239 122q-90 122 -90 322z" />
    <glyph glyph-name="guilsinglleft" unicode="&#x2039;" horiz-adv-x="743" 
d="M651 0h-174l-416 537l416 538h174l-415 -536z" />
    <glyph glyph-name="guilsinglright" unicode="&#x203a;" horiz-adv-x="743" 
d="M682 539l-416 -539h-174l416 537l-416 538h174z" />
    <glyph glyph-name="fraction" unicode="&#x2044;" horiz-adv-x="935" 
d="M1040 1434l-977 -1434h-167l976 1434h168z" />
    <glyph glyph-name="fraction" unicode="&#x2215;" horiz-adv-x="935" 
d="M1040 1434l-977 -1434h-167l976 1434h168z" />
    <glyph glyph-name="Euro" unicode="&#x20ac;" horiz-adv-x="1218" 
d="M674 119q106 0 181 45t151 141l102 -90q-90 -117 -190 -177t-248 -61q-256 0 -403 195q-146 195 -146 545t149 545q150 195 406 194q148 0 246 -53t180 -176l-119 -92q-68 98 -135 139q-68 41 -176 41q-152 0 -247 -96t-130 -277h551v-129h-567q-7 -110 0 -174h567v-129
h-553q33 -188 129 -290t252 -101z" />
    <glyph glyph-name="trademark" unicode="&#x2122;" horiz-adv-x="1560" 
d="M618 1348h-237v-732h-98v732h-238v86h573v-86zM1468 616h-92v631q-10 -43 -49 -137l-215 -516l-209 516q-35 84 -49 137v-631h-92v818h106l193 -490q39 -92 55 -149q10 35 53 149l195 490h104v-818z" />
    <glyph glyph-name="partialdiff" unicode="&#x2202;" horiz-adv-x="749" 
d="M600 358q10 6 17 -4t-3 -24l-239 -361l-240 361q-10 14 -3 24t18 4l153 -61v840l-153 -62q-10 -6 -18 4t3 25l240 360l239 -360q10 -14 3 -24t-17 -5l-154 62v-840z" />
    <glyph glyph-name="product" unicode="&#x220f;" 
d="M819 637v-367l164 62q15 6 19 -2t-5 -21l-247 -340l-248 340q-8 12 -6 19q4 10 20 4l164 -62v367h-338l61 -164q6 -16 -2 -19t-20 5l-340 248l340 247q12 8 20 6t2 -20l-61 -164h338v387l-164 -61q-16 -6 -19 2t5 20l248 340l247 -340q7 -12 5 -20t-19 -2l-164 61v-387
h330l-62 164q-5 16 3 20t20 -6l340 -247l-340 -248q-12 -8 -20 -5t-3 19l62 164h-330z" />
    <glyph glyph-name="summation" unicode="&#x2211;" 
d="M819 637v-367l164 62q15 6 19 -2t-5 -21l-247 -340l-248 340q-8 12 -6 19q4 10 20 4l164 -62v367h-338l61 -164q6 -16 -2 -19t-20 5l-340 248l340 247q12 8 20 6t2 -20l-61 -164h338v387l-164 -61q-16 -6 -19 2t5 20l248 340l247 -340q7 -12 5 -20t-19 -2l-164 61v-387
h330l-62 164q-5 16 3 20t20 -6l340 -247l-340 -248q-12 -8 -20 -5t-3 19l62 164h-330z" />
    <glyph glyph-name="minus" unicode="&#x2212;" 
d="M819 637v-367l164 62q15 6 19 -2t-5 -21l-247 -340l-248 340q-8 12 -6 19q4 10 20 4l164 -62v367h-338l61 -164q6 -16 -2 -19t-20 5l-340 248l340 247q12 8 20 6t2 -20l-61 -164h338v387l-164 -61q-16 -6 -19 2t5 20l248 340l247 -340q7 -12 5 -20t-19 -2l-164 61v-387
h330l-62 164q-5 16 3 20t20 -6l340 -247l-340 -248q-12 -8 -20 -5t-3 19l62 164h-330z" />
    <glyph glyph-name="radical" unicode="&#x221a;" horiz-adv-x="1187" 
d="M1096 1434l-541 -1434h-143l-318 696h164l100 -229q90 -215 123 -309q29 92 111 319l350 957h154z" />
    <glyph glyph-name="infinity" unicode="&#x221e;" 
d="M819 637v-367l164 62q15 6 19 -2t-5 -21l-247 -340l-248 340q-8 12 -6 19q4 10 20 4l164 -62v367h-338l61 -164q6 -16 -2 -19t-20 5l-340 248l340 247q12 8 20 6t2 -20l-61 -164h338v387l-164 -61q-16 -6 -19 2t5 20l248 340l247 -340q7 -12 5 -20t-19 -2l-164 61v-387
h330l-62 164q-5 16 3 20t20 -6l340 -247l-340 -248q-12 -8 -20 -5t-3 19l62 164h-330z" />
    <glyph glyph-name="integral" unicode="&#x222b;" horiz-adv-x="1144" 
d="M530 965q-266 0 -266 -443q0 -201 72 -306t201 -105q159 -1 284 155v537q-47 72 -124 117t-167 45zM975 0h-154v131q-141 -154 -318 -154q-177 1 -283 137t-107 408q0 272 114 424q115 152 291 152t303 -144v121h154v-1075z" />
    <glyph glyph-name="approxequal" unicode="&#x2248;" horiz-adv-x="749" 
d="M303 1434h143v-1137l154 61q10 6 17 -4t-3 -24l-239 -361l-240 361q-10 14 -3 24t18 4l153 -61v1137z" />
    <glyph glyph-name="notequal" unicode="&#x2260;" 
d="M819 637v-367l164 62q15 6 19 -2t-5 -21l-247 -340l-248 340q-8 12 -6 19q4 10 20 4l164 -62v367h-338l61 -164q6 -16 -2 -19t-20 5l-340 248l340 247q12 8 20 6t2 -20l-61 -164h338v387l-164 -61q-16 -6 -19 2t5 20l248 340l247 -340q7 -12 5 -20t-19 -2l-164 61v-387
h330l-62 164q-5 16 3 20t20 -6l340 -247l-340 -248q-12 -8 -20 -5t-3 19l62 164h-330z" />
    <glyph glyph-name="lessequal" unicode="&#x2264;" 
d="M819 637v-367l164 62q15 6 19 -2t-5 -21l-247 -340l-248 340q-8 12 -6 19q4 10 20 4l164 -62v367h-338l61 -164q6 -16 -2 -19t-20 5l-340 248l340 247q12 8 20 6t2 -20l-61 -164h338v387l-164 -61q-16 -6 -19 2t5 20l248 340l247 -340q7 -12 5 -20t-19 -2l-164 61v-387
h330l-62 164q-5 16 3 20t20 -6l340 -247l-340 -248q-12 -8 -20 -5t-3 19l62 164h-330z" />
    <glyph glyph-name="greaterequal" unicode="&#x2265;" 
d="M819 637v-367l164 62q15 6 19 -2t-5 -21l-247 -340l-248 340q-8 12 -6 19q4 10 20 4l164 -62v367h-338l61 -164q6 -16 -2 -19t-20 5l-340 248l340 247q12 8 20 6t2 -20l-61 -164h338v387l-164 -61q-16 -6 -19 2t5 20l248 340l247 -340q7 -12 5 -20t-19 -2l-164 61v-387
h330l-62 164q-5 16 3 20t20 -6l340 -247l-340 -248q-12 -8 -20 -5t-3 19l62 164h-330z" />
    <glyph glyph-name="lozenge" unicode="&#x25ca;" 
d="M819 637v-367l164 62q15 6 19 -2t-5 -21l-247 -340l-248 340q-8 12 -6 19q4 10 20 4l164 -62v367h-338l61 -164q6 -16 -2 -19t-20 5l-340 248l340 247q12 8 20 6t2 -20l-61 -164h338v387l-164 -61q-16 -6 -19 2t5 20l248 340l247 -340q7 -12 5 -20t-19 -2l-164 61v-387
h330l-62 164q-5 16 3 20t20 -6l340 -247l-340 -248q-12 -8 -20 -5t-3 19l62 164h-330z" />
    <glyph glyph-name="apple" unicode="&#xf8ff;" 
d="M819 637v-367l164 62q15 6 19 -2t-5 -21l-247 -340l-248 340q-8 12 -6 19q4 10 20 4l164 -62v367h-338l61 -164q6 -16 -2 -19t-20 5l-340 248l340 247q12 8 20 6t2 -20l-61 -164h338v387l-164 -61q-16 -6 -19 2t5 20l248 340l247 -340q7 -12 5 -20t-19 -2l-164 61v-387
h330l-62 164q-5 16 3 20t20 -6l340 -247l-340 -248q-12 -8 -20 -5t-3 19l62 164h-330z" />
    <glyph glyph-name="NUL" horiz-adv-x="0" 
 />
    </font>
</defs>
</svg>
